<svg xmlns="http://www.w3.org/2000/svg" viewBox="0 0 482.203 482.203" width="512" height="512"><g fill="#fca313"><path d="M44.707 392.716h50.804v25.402H44.707z"/><path d="M36.579 376.459h313.765l.219 8.129.219 8.129.935 34.798.325 12.193 12.193-.333 16.257-.439 12.185-.333-.114-4.227-.211-7.958-.008-.171-.219-8.129h28.531v-25.402H391.44l-.219-8.129-.219-8.129h35.229l1.886 8.129.667 2.894 1.211 5.235 6.917 29.856 2.943 12.697 2.756 11.876 11.876-2.756 15.843-3.666 11.876-2.756-2.756-11.876-7.73-33.376-1.886-8.129-1.886-8.129h3.512v-40.643h-12.924l-1.886-8.129-1.886-8.129h16.696V35.059H0V319.56h348.813l.219 8.129.219 8.129H0v40.643h36.579zm324.647-48.772l-.219-8.129-5.154-191.639 12.713-.341 4.007 17.289 4.698 174.691.219 8.129.219 8.129.602 22.354.219 8.129.219 8.129.057 2.032.219 8.129.219 8.129.683 25.402.219 8.129.016.496-16.257.439-.024-.943-.91-33.522-.219-8.129-.219-8.129-.276-10.161-.219-8.129-.593-22.354-.219-8.13zm82.911 0l1.886 8.129 9.413 40.643 1.886 8.129 1.886 8.129 8.372 36.132-15.843 3.666-9.226-39.797-1.886-8.129-1.886-8.129-1.837-7.917-2.406-10.372-5.17-22.354-1.886-8.129-1.886-8.129-40.83-176.244-6.535-28.198-5.349-23.158-.577-2.504 15.843-3.666 1.422 6.17 52.722 227.6 1.887 8.128zM302.489 299.53c-2.349 0-4.95-.098-7.828-.293-44.707-3.048-73.157-11.9-74.173-45.577-.073-2.325.081-4.682.333-7.039 10.51 27.174 44.406 32.124 76.498 34.311 3.032.211 5.763.309 8.242.309 9.47 0 15.761-1.528 19.98-4.194-1.081 13.013.39 22.483-23.052 22.483zm-130.058 0c-2.349 0-4.95-.098-7.828-.293-44.707-3.048-73.157-11.9-74.173-45.577-.073-2.325.081-4.682.333-7.039 10.51 27.174 44.406 32.124 76.498 34.311 3.032.211 5.763.309 8.242.309 9.47 0 15.761-1.528 19.98-4.194-1.08 13.013.391 22.483-23.052 22.483zM31.718 91.959a52.083 52.083 0 0 1 2.406-4.389 53.679 53.679 0 0 1 2.528-3.739c1.268-1.715 2.601-3.373 4.072-4.893 1.024-1.057 2.243-2.154 3.544-3.235 5.657-4.715 13.884-9.177 24.906-9.177 8.714 0 17.907 2.804 27.377 8.356.374.211.894.553 1.325.821 2.943 1.796 7.08 4.593 11.461 8.129 3.04 2.447 6.121 5.186 8.893 8.129 4.292 4.552 7.803 9.527 9.047 14.388.236.919.382 1.813.439 2.674.13 1.878-.203 3.625-.919 5.34-.26.626-.536 1.244-.91 1.861-.439.723-.797 1.431-1.179 2.146-4.568 8.568-5.17 16.647-5.625 23.231-.74 10.754-.935 13.64-16.745 13.64-2.227 0-4.69-.089-7.421-.276-49.788-3.398-67.711-13.778-68.491-39.676-.081-2.788.154-5.625.593-8.454a51.469 51.469 0 0 1 2.479-9.616 56.021 56.021 0 0 1 2.22-5.26zm143.12-8.129c1.268-1.715 2.601-3.373 4.072-4.893 1.024-1.057 2.243-2.154 3.544-3.235 5.657-4.715 13.884-9.177 24.906-9.177 8.714 0 17.907 2.804 27.377 8.356.374.211.894.553 1.325.821 2.943 1.796 7.08 4.593 11.461 8.129 3.04 2.447 6.121 5.186 8.893 8.129 4.292 4.552 7.803 9.527 9.047 14.388.236.919.382 1.813.439 2.674.13 1.878-.203 3.625-.919 5.34-.26.626-.536 1.244-.91 1.861-.439.723-.797 1.431-1.179 2.146-4.568 8.568-5.17 16.647-5.625 23.231-.74 10.754-.935 13.64-16.745 13.64-2.227 0-4.69-.089-7.421-.276-49.788-3.398-67.711-13.778-68.491-39.676-.081-2.788.154-5.625.593-8.454a51.469 51.469 0 0 1 2.479-9.616 53.275 53.275 0 0 1 2.211-5.259 52.083 52.083 0 0 1 2.406-4.389 50.924 50.924 0 0 1 2.537-3.74zm85.187 86.008c-9.21 2.276-17.696 7.047-24.833 14.412-.415.431-.78.91-1.187 1.357-1.439-.049-2.764-.057-4.373-.163-44.707-3.048-73.157-11.9-74.173-45.577-.073-2.325.081-4.682.333-7.039 10.51 27.174 44.406 32.124 76.498 34.311 3.032.211 5.763.309 8.242.309 9.47 0 15.761-1.528 19.98-4.194-.186 2.309-.3 4.52-.487 6.584zm-60.07 58.323c-.26.626-.536 1.244-.91 1.861-.439.723-.797 1.431-1.179 2.146-4.568 8.568-5.17 16.647-5.625 23.231-.74 10.754-.935 13.64-16.745 13.64-2.227 0-4.69-.089-7.421-.276-49.788-3.398-67.711-13.778-68.491-39.676-.081-2.788.154-5.625.593-8.454a51.469 51.469 0 0 1 2.479-9.616 53.702 53.702 0 0 1 4.609-9.657c1.91-3.121 4.105-6.048 6.609-8.624.309-.317.675-.65 1.016-.975 2.739-2.658 6.283-5.43 10.713-7.592 4.633-2.26 10.185-3.853 16.72-3.853 8.714 0 17.907 2.804 27.377 8.356 7.405 4.276 27.361 18.273 30.726 31.466.236.919.382 1.813.439 2.674.138 1.886-.195 3.634-.91 5.349zm130.057 0c-.26.626-.536 1.244-.91 1.861-.439.723-.797 1.431-1.179 2.146-4.568 8.568-5.17 16.647-5.625 23.231-.74 10.754-.935 13.64-16.745 13.64-2.227 0-4.69-.089-7.421-.276-49.788-3.398-67.711-13.778-68.491-39.676-.081-2.788.154-5.625.593-8.454a51.469 51.469 0 0 1 2.479-9.616 53.702 53.702 0 0 1 4.609-9.657 49.998 49.998 0 0 1 5.844-7.755c.26-.285.496-.602.764-.878a45.578 45.578 0 0 1 4.381-3.934 39.482 39.482 0 0 1 11.884-6.462 37.731 37.731 0 0 1 5.365-1.357c2.162-.39 4.406-.667 6.828-.667 8.714 0 17.907 2.804 27.377 8.356 7.405 4.276 27.361 18.273 30.726 31.466.236.919.382 1.813.439 2.674.131 1.895-.203 3.643-.918 5.358zm-312.406-95.34c10.51 27.174 44.406 32.124 76.498 34.311 3.032.211 5.763.309 8.242.309 9.47 0 15.761-1.528 19.98-4.194-.293 3.463-.398 6.674-.845 9.527a52.877 52.877 0 0 0-16.355 11.478c-.398.415-.748.87-1.13 1.292a63.802 63.802 0 0 1-4.723.187c-2.349 0-4.95-.098-7.828-.293-44.707-3.048-73.157-11.9-74.173-45.577-.072-2.326.083-4.683.334-7.04zm372.305 202.995l-.219-8.129-.219-8.129h23.573l1.886 8.129 1.886 8.129h-26.907z"/><path d="M90.406 131.585c19.281-2.032 8.153-10.161 8.153-20.703S74.011 91.959 74.011 91.959c-3.918-1.813-7.397-1.536-10.413 0-7.511 3.82-12.071 15.688-12.794 24.386-1.016 12.192 20.321 17.273 39.602 15.24zm138.186 0c19.281-2.032 8.153-10.161 8.153-20.703s-24.548-18.923-24.548-18.923c-3.918-1.813-7.397-1.536-10.413 0-7.503 3.82-12.063 15.688-12.786 24.386-1.025 12.192 20.313 17.273 39.594 15.24zm48.633 74.174c-13.664-6.324-22.191 12.193-23.207 24.386-1.016 12.193 20.321 17.273 39.602 15.241 19.281-2.032 8.153-10.161 8.153-20.703s-24.548-18.924-24.548-18.924zm-130.057 0c-13.664-6.324-22.191 12.193-23.207 24.386-1.016 12.193 20.321 17.273 39.602 15.241 19.281-2.032 8.153-10.161 8.153-20.703s-24.548-18.924-24.548-18.924z"/></g></svg>