<svg xmlns="http://www.w3.org/2000/svg" viewBox="0 0 297 297" width="512" height="512"><g fill="#fca313"><path d="M290.452 145.73L131.189 82.024v22.429l151.529 60.612c1.268.507 2.577.747 3.864.747 4.131 0 8.042-2.477 9.671-6.548 2.135-5.339-.462-11.398-5.801-13.534zM58.306 51.019c35.358 0 54.585-7.643 57.997-11.453-3.412-3.81-22.639-11.453-57.997-11.453-35.358 0-54.585 7.643-57.997 11.453 3.412 3.81 22.639 11.453 57.997 11.453zm-9.371-18.741h18.741a7.288 7.288 0 0 1 0 14.576H48.935a7.288 7.288 0 0 1 0-14.576zm226.397 217.636L51.999 95.299a10.368 10.368 0 0 0-5.917-1.852 10.403 10.403 0 0 0-8.57 4.485c-3.273 4.728-2.095 11.214 2.633 14.487l223.333 154.615a10.372 10.372 0 0 0 5.918 1.853 10.4 10.4 0 0 0 8.569-4.486c3.274-4.728 2.095-11.214-2.633-14.487z"/><path d="M25.529 89.632A25.002 25.002 0 0 1 46.081 78.87a24.864 24.864 0 0 1 14.214 4.444l56.316 38.988V56.244c-15.742 7.083-40.898 9.351-58.306 9.351-17.408 0-42.564-2.268-58.306-9.351v95.369c2.347 3.644 21.664 11.853 58.306 11.853 10.595 0 19.73-.689 27.434-1.753l-53.891-37.309c-11.328-7.842-14.164-23.44-6.319-34.772z"/></g></svg>