<svg xmlns="http://www.w3.org/2000/svg" viewBox="0 0 409.222 409.222" width="512" height="512"><path d="M201.36 289.989l1.344 1.345c3.904 3.906 3.902 10.238-.005 14.142a9.97 9.97 0 0 1-7.068 2.927 9.966 9.966 0 0 1-7.073-2.932l-1.344-1.345c-3.904-3.906-3.902-10.238.005-14.142 3.906-3.905 10.239-3.901 14.141.005zM140.535 165.57v-54.074c0-20.422 16.614-37.036 37.037-37.036h54.075c20.423 0 37.038 16.614 37.038 37.036v54.074c0 20.424-16.615 37.039-37.038 37.039h-54.075c-20.423 0-37.037-16.615-37.037-37.039zm20 0c0 9.396 7.643 17.039 17.037 17.039h54.075c9.395 0 17.038-7.644 17.038-17.039v-54.074c0-9.394-7.644-17.036-17.038-17.036h-54.075c-9.395 0-17.037 7.643-17.037 17.036v54.074zm58.207 121.827a9.968 9.968 0 0 0 7.073 2.932 9.968 9.968 0 0 0 7.068-2.927c3.907-3.903 3.909-10.235.005-14.142l-1.344-1.345c-3.902-3.906-10.235-3.91-14.142-.005-3.907 3.903-3.909 10.235-.005 14.142l1.345 1.345zm109.013-140.269c-3.907 3.903-3.909 10.235-.005 14.142l1.344 1.345a9.968 9.968 0 0 0 7.073 2.932 9.968 9.968 0 0 0 7.068-2.927c3.907-3.903 3.909-10.235.005-14.142l-1.344-1.345c-3.901-3.906-10.234-3.909-14.141-.005zm31.526-2.584c1.953 1.952 4.512 2.929 7.071 2.929s5.118-.977 7.071-2.929c3.905-3.905 3.905-10.237 0-14.143l-1.345-1.345c-3.906-3.904-10.236-3.904-14.143 0-3.905 3.905-3.905 10.237 0 14.143l1.346 1.345zm-78.209-6.01c0-35.331 28.743-64.074 64.074-64.074s64.075 28.743 64.075 64.074-28.744 64.075-64.075 64.075-64.074-28.744-64.074-64.075zm20 0c0 24.303 19.771 44.075 44.074 44.075s44.075-19.772 44.075-44.075-19.772-44.074-44.075-44.074-44.074 19.771-44.074 44.074zm30.713-6.466a9.968 9.968 0 0 0 7.068-2.927l1.346-1.345c3.907-3.903 3.909-10.235.005-14.142-3.902-3.907-10.235-3.91-14.142-.005l-1.346 1.345c-3.907 3.903-3.909 10.235-.005 14.142a9.966 9.966 0 0 0 7.074 2.932zm-155.741 6.466c0-15.751 12.814-28.565 28.566-28.565 15.751 0 28.565 12.814 28.565 28.565 0 15.752-12.814 28.566-28.565 28.566-15.751.001-28.566-12.814-28.566-28.566zm20 0c0 4.724 3.843 8.566 8.566 8.566 4.723 0 8.565-3.843 8.565-8.566 0-4.723-3.843-8.565-8.565-8.565-4.723 0-8.566 3.843-8.566 8.565zm-113.31 64.062c.177.01.353.014.528.014 5.284 0 9.7-4.142 9.978-9.48l9.504-182.608C103.031 5.006 98.793.303 93.277.016c-5.494-.297-10.22 3.95-10.506 9.467L73.267 192.09c-.287 5.515 3.951 10.219 9.467 10.506zm267.835 186.626h-48.653c-5.522 0-10 4.478-10 10s4.478 10 10 10h48.653c5.522 0 10-4.478 10-10s-4.478-10-10-10zm48.652-28.409H10c-5.522 0-10 4.478-10 10s4.478 10 10 10h389.221c5.522 0 10-4.478 10-10s-4.477-10-10-10zm10-106.46v54.075c0 20.423-16.616 37.038-37.04 37.038h-54.072c-20.423 0-37.037-16.615-37.037-37.038v-54.075c0-20.422 16.614-37.036 37.037-37.036h54.072c20.424-.001 37.04 16.614 37.04 37.036zm-20 0c0-9.394-7.645-17.036-17.04-17.036h-54.072c-9.395 0-17.037 7.643-17.037 17.036v54.075c0 9.395 7.643 17.038 17.037 17.038h54.072c9.396 0 17.04-7.644 17.04-17.038v-54.075zM191.25 274.925a9.97 9.97 0 0 0 7.071-2.929l1.344-1.344c3.905-3.905 3.905-10.237 0-14.143-3.906-3.904-10.236-3.904-14.143 0l-1.344 1.344c-3.905 3.905-3.905 10.237 0 14.143a9.973 9.973 0 0 0 7.072 2.929zm182.461 6.467c0 15.751-12.814 28.565-28.565 28.565s-28.565-12.814-28.565-28.565c0-15.752 12.814-28.566 28.565-28.566s28.565 12.814 28.565 28.566zm-20 0c0-4.724-3.843-8.566-8.565-8.566s-8.565 3.843-8.565 8.566c0 4.723 3.843 8.565 8.565 8.565s8.565-3.843 8.565-8.565zm-246.406 107.83H58.653c-5.522 0-10 4.478-10 10s4.478 10 10 10h48.652c5.522 0 10-4.478 10-10s-4.477-10-10-10zM34.907 193.129c.277 5.339 4.693 9.48 9.978 9.48.175 0 .352-.004.528-.014 5.516-.287 9.754-4.99 9.467-10.506L45.377 9.481C45.091 3.964 40.372-.283 34.871.014c-5.516.287-9.754 4.99-9.467 10.506l9.503 182.609zm105.628 88.263c0-35.331 28.744-64.075 64.076-64.075 35.331 0 64.074 28.744 64.074 64.075s-28.743 64.074-64.074 64.074c-35.332 0-64.076-28.743-64.076-64.074zm20 0c0 24.303 19.772 44.074 44.076 44.074 24.303 0 44.074-19.771 44.074-44.074s-19.771-44.075-44.074-44.075c-24.304-.001-44.076 19.772-44.076 44.075zM0 308.428v-54.075c0-20.422 16.614-37.036 37.036-37.036H91.11c20.424 0 37.039 16.614 37.039 37.036v54.075c0 20.423-16.615 37.038-37.039 37.038H37.037C16.615 345.466 0 328.851 0 308.428zm20 0c0 9.395 7.643 17.038 17.036 17.038H91.11c9.396 0 17.039-7.644 17.039-17.038v-54.075c0-9.394-7.644-17.036-17.039-17.036H37.037c-9.394 0-17.036 7.643-17.036 17.036v54.075zm15.507-27.036c0-15.752 12.814-28.566 28.566-28.566s28.566 12.814 28.566 28.566c0 15.751-12.814 28.565-28.566 28.565s-28.566-12.814-28.566-28.565zm20 0c0 4.723 3.843 8.565 8.566 8.565s8.566-3.843 8.566-8.565c0-4.724-3.843-8.566-8.566-8.566s-8.566 3.842-8.566 8.566z" fill="#fca313"/></svg>