<svg xmlns="http://www.w3.org/2000/svg" viewBox="0 0 297 297" width="512" height="512"><g fill="#fca313"><path d="M291.014 157.131l-88.994-38.003v.023a43.485 43.485 0 0 1-4.575 19.45l85.831 36.652a9.816 9.816 0 0 0 3.864.795 9.855 9.855 0 0 0 9.066-5.987c2.137-5.005-.188-10.793-5.192-12.93zM205.783 87.04c1.514.376 3.016-.49 3.421-1.968l9.495-34.707a2.874 2.874 0 0 0-.292-2.217 2.767 2.767 0 0 0-1.721-1.298 438.466 438.466 0 0 0-11.176-2.627c.062 4.918-.341 16.631-5.13 24.007-2.424 3.732-4.337 10.739-5.528 16.271 3.654.796 7.3 1.639 10.931 2.539zM27.29 58.712c.513-5.901-2.911-13.253-4.748-16.447A438.026 438.026 0 0 0 2.117 46.85a2.767 2.767 0 0 0-1.72 1.298 2.869 2.869 0 0 0-.293 2.217L9.599 85.07c.404 1.479 1.905 2.346 3.421 1.969A397.568 397.568 0 0 1 31.4 82.95c-2.049-6.716-4.726-17.156-4.11-24.238zm156.927 23.629c1.297-6.093 3.595-14.662 7.071-20.013 2.95-4.545 3.61-14.463 3.332-19.648a5.368 5.368 0 0 1 .016-.73 440.795 440.795 0 0 0-21.03-3.59 5.471 5.471 0 0 1-.578.83c-.255.311-4.402 5.528-3.749 14.998.62 8.995-1.431 19.409-2.821 25.202 5.94.85 11.862 1.834 17.759 2.951zM38.088 59.65c-.466 5.356 2.062 14.971 4.052 21.328A400.531 400.531 0 0 1 63.08 78c-.609-4.536-2.7-10.445-4.238-14.778-1.132-3.186-2.108-5.938-2.654-8.259-1.278-5.433.238-12.986 1.698-18.27a442.034 442.034 0 0 0-24.201 3.5c2.226 4.628 5.04 12.119 4.403 19.457zm120.378-4.716c-.559-8.11 1.479-14.263 3.397-18.132a444.335 444.335 0 0 0-27.089-2.364v41.7a400.461 400.461 0 0 1 20.863 1.854c1.201-4.796 3.39-14.911 2.829-23.058zm-89.41 4.663c1.9 5.352 4.085 11.545 4.776 17.301 3.396-.3 6.796-.541 10.197-.753V34.432c-4.814.272-9.625.615-14.429 1.046-1.784 5.224-3.711 13.398-2.862 17.003.41 1.741 1.336 4.352 2.318 7.116zm119.17 59.554V97.2a386.95 386.95 0 0 0-53.451-7.236v37.994l29.643 20.522c13.579-2.848 23.808-14.915 23.808-29.329zm91.953 126.251L83.799 109.446a9.81 9.81 0 0 0-5.6-1.752 9.844 9.844 0 0 0-8.11 4.244c-3.097 4.474-1.982 10.612 2.492 13.71l196.38 135.956a9.806 9.806 0 0 0 5.6 1.753 9.845 9.845 0 0 0 8.11-4.245c3.098-4.475 1.982-10.613-2.492-13.71zM120.98 33.643H97.823v68.735l23.157 16.031z"/><path d="M54.924 121.776a23.497 23.497 0 0 1 3.825-17.692 23.666 23.666 0 0 1 19.45-10.185c1.986 0 3.938.26 5.829.741v-4.676a386.795 386.795 0 0 0-53.451 7.235v21.951c0 16.526 13.445 29.97 29.97 29.97h21.705L64.73 136.99a23.49 23.49 0 0 1-9.806-15.214z"/></g></svg>