<?xml version="1.0" encoding="UTF-8" standalone="no"?>
<svg
   width="12"
   height="7"
   fill="none"
   version="1.1"
   id="svg4"
   sodipodi:docname="arrow-up.svg"
   inkscape:version="1.1 (c68e22c387, 2021-05-23)"
   xmlns:inkscape="http://www.inkscape.org/namespaces/inkscape"
   xmlns:sodipodi="http://sodipodi.sourceforge.net/DTD/sodipodi-0.dtd"
   xmlns="http://www.w3.org/2000/svg"
   xmlns:svg="http://www.w3.org/2000/svg">
  <defs
     id="defs8" />
  <sodipodi:namedview
     id="namedview6"
     pagecolor="#ffffff"
     bordercolor="#666666"
     borderopacity="1.0"
     inkscape:pageshadow="2"
     inkscape:pageopacity="0.0"
     inkscape:pagecheckerboard="0"
     showgrid="false"
     inkscape:zoom="120.28571"
     inkscape:cx="6.0023753"
     inkscape:cy="3.4625891"
     inkscape:window-width="1827"
     inkscape:window-height="1046"
     inkscape:window-x="82"
     inkscape:window-y="-11"
     inkscape:window-maximized="1"
     inkscape:current-layer="svg4" />
  <path
     d="m 5.98,0.00283172 a 0.62,-0.62 0 0 0 -0.459,0.218 L 1.225,4.9668317 a 1.073,-1.073 0 0 0 -0.255,0.643 1.17,-1.17 0 0 0 0.162,0.695 c 0.122,0.194 0.296,0.316 0.486,0.339 a 0.607,-0.607 0 0 0 0.524,-0.215 l 3.838,-4.253 3.838,4.1 a 0.68,-0.68 0 0 0 0.248,0.174 0.55,-0.55 0 0 0 0.279,0.034 0.605,-0.605 0 0 0 0.267,-0.111 c 0.083,-0.06 0.156,-0.141 0.215,-0.239 0.066,-0.097 0.116,-0.212 0.146,-0.336 a 1.244,-1.244 0 0 0 -0.055,-0.756 0.925,-0.925 0 0 0 -0.191,-0.294 L 6.431,0.16383172 a 0.591,-0.591 0 0 0 -0.451,-0.161 z"
     fill="#575859"
     id="path2"
     style="fill:#ffffff" />
</svg>
