<?xml version="1.0" encoding="UTF-8" standalone="no"?>
<svg
   xmlns:dc="http://purl.org/dc/elements/1.1/"
   xmlns:cc="http://creativecommons.org/ns#"
   xmlns:rdf="http://www.w3.org/1999/02/22-rdf-syntax-ns#"
   xmlns:svg="http://www.w3.org/2000/svg"
   xmlns="http://www.w3.org/2000/svg"
   version="1.1"
   id="svg2"
   viewBox="0 0 544.62806 101.94863"
   height="101.94863"
   width="544.62805">
  <defs
     id="defs4" />
  <metadata
     id="metadata7">
    <rdf:RDF>
      <cc:Work
         rdf:about="">
        <dc:format>image/svg+xml</dc:format>
        <dc:type
           rdf:resource="http://purl.org/dc/dcmitype/StillImage" />
        <dc:title></dc:title>
      </cc:Work>
    </rdf:RDF>
  </metadata>
  <g
     transform="translate(-414.75736,-593.24575)"
     id="layer1">
    <path
       id="path3371"
       d="m 414.91569,677.66719 c 0.38432,-1.20313 5.67196,-17.09375 11.75031,-35.3125 l 11.05155,-33.125 9.89801,-0.35803 9.898,-0.35803 11.56091,34.75727 c 6.35851,19.11651 11.56092,35.16824 11.56092,35.67053 0,0.50229 -3.93032,0.91326 -8.73405,0.91326 l -8.73405,0 -2.20345,-7.49827 -2.20345,-7.49827 -11.25,0 -11.25,0 -2.20345,7.49827 -2.20345,7.49827 -8.81829,0 c -7.83122,0 -8.74006,-0.24485 -8.11951,-2.1875 z m 39.4697,-26.06923 c 0,-1.47466 -6.40873,-21.74327 -6.875,-21.74327 -0.46627,0 -6.875,20.26861 -6.875,21.74327 0,0.4162 3.09375,0.75673 6.875,0.75673 3.78125,0 6.875,-0.34053 6.875,-0.75673 z m 38.75,-7.3779 0,-35.97431 19.0625,0.64823 c 21.01331,0.71457 24.98737,1.75784 32.78899,8.60774 7.3624,6.46428 10.6216,14.67486 10.6363,26.79504 0.0146,12.03372 -3.52284,20.53923 -11.31691,27.21066 -6.97807,5.97297 -12.01773,7.20282 -32.73338,7.98807 l -18.4375,0.69889 0,-35.97432 z m 34.47888,19.87655 c 6.75823,-3.20698 9.89693,-9.5109 9.8917,-19.86692 -0.007,-14.34862 -7.05308,-21.875 -20.47827,-21.875 l -6.39231,0 0,21.875 0,21.875 6.37359,0 c 3.50547,0 8.27786,-0.90364 10.60529,-2.00808 z m 37.30142,13.57058 c 0.38431,-1.20313 5.67196,-17.09375 11.75031,-35.3125 l 11.05155,-33.125 9.898,-0.35803 9.898,-0.35803 11.56093,34.75727 c 6.3585,19.11651 11.56091,35.16824 11.56091,35.67053 0,0.50229 -3.93033,0.91326 -8.73405,0.91326 l -8.73405,0 -2.20345,-7.49827 -2.20345,-7.49827 -11.25,0 -11.25,0 -2.20345,7.49827 -2.20345,7.49827 -8.81829,0 c -7.83122,0 -8.74006,-0.24485 -8.11951,-2.1875 z m 39.4697,-26.06923 c 0,-1.47466 -6.40872,-21.74327 -6.875,-21.74327 -0.46627,0 -6.875,20.26861 -6.875,21.74327 0,0.4162 3.09375,0.75673 6.875,0.75673 3.78125,0 6.875,-0.34053 6.875,-0.75673 z m 38.75,-7.50184 0,-35.75856 19.0625,0.45452 c 16.30858,0.38885 19.78484,0.83017 24.0625,3.0548 7.65003,3.97844 10.625,9.27034 10.625,18.89984 0,8.92334 -1.01649,11.59907 -6.6784,17.57972 -4.55173,4.80797 -13.30552,7.77825 -22.92347,7.77825 l -6.64813,0 0,11.875 0,11.875 -8.75,0 -8.75,0 0,-35.75857 z m 31.1532,-3.56637 c 5.7767,-2.98725 6.76778,-10.36772 2.02861,-15.10688 -2.44676,-2.44676 -4.34553,-3.06818 -9.375,-3.06818 l -6.30681,0 0,10 0,10 5.06207,0 c 2.78414,0 6.65015,-0.82122 8.59113,-1.82494 z m 51.3468,10.57494 0,-28.75 -10.625,0 -10.625,0 0,-6.875 0,-6.875 30,0 30,0 0,6.875 0,6.875 -10.625,0 -10.625,0 0,28.75 0,28.75 -8.75,0 -8.75,0 0,-28.75 z m 43.0303,26.5625 c 0.38431,-1.20313 5.67196,-17.09375 11.75031,-35.3125 l 11.05155,-33.125 9.898,-0.35803 9.898,-0.35803 11.56093,34.75727 c 6.3585,19.11651 11.56091,35.16824 11.56091,35.67053 0,0.50229 -3.93032,0.91326 -8.73405,0.91326 l -8.73405,0 -2.20345,-7.49827 -2.20345,-7.49827 -11.25,0 -11.25,0 -2.20345,7.49827 -2.20345,7.49827 -8.81829,0 c -7.83122,0 -8.74006,-0.24485 -8.11951,-2.1875 z m 39.4697,-26.06923 c 0,-1.47466 -6.40872,-21.74327 -6.875,-21.74327 -0.46627,0 -6.875,20.26861 -6.875,21.74327 0,0.4162 3.09375,0.75673 6.875,0.75673 3.78125,0 6.875,-0.34053 6.875,-0.75673 z m 52.5,-0.49327 0,-28.75 -10.625,0 -10.625,0 0,-6.875 0,-6.875 30,0 30,0 0,6.875 0,6.875 -10.625,0 -10.625,0 0,28.75 0,28.75 -8.75,0 -8.75,0 0,-28.75 z m 51.25,-6.875 0,-35.625 23.75,0 23.75,0 0,6.875 0,6.875 -15,0 -15,0 0,6.25 0,6.25 13.75,0 13.75,0 0,6.875 0,6.875 -13.75,0 -13.75,0 0,8.75 0,8.75 15,0 15,0 0,6.875 0,6.875 -23.75,0 -23.75,0 0,-35.625 z"
       style="fill:#cfcfcf" />
  </g>
</svg>
