<?xml version="1.0" encoding="UTF-8" standalone="no"?>
<svg
   xmlns:dc="http://purl.org/dc/elements/1.1/"
   xmlns:cc="http://creativecommons.org/ns#"
   xmlns:rdf="http://www.w3.org/1999/02/22-rdf-syntax-ns#"
   xmlns:svg="http://www.w3.org/2000/svg"
   xmlns="http://www.w3.org/2000/svg"
   version="1.1"
   id="svg4156"
   viewBox="0 0 78.563722 60.051102"
   height="60.051102"
   width="78.563721">
  <metadata
     id="metadata4168">
    <rdf:RDF>
      <cc:Work
         rdf:about="">
        <dc:format>image/svg+xml</dc:format>
        <dc:type
           rdf:resource="http://purl.org/dc/dcmitype/StillImage" />
        <dc:title></dc:title>
      </cc:Work>
    </rdf:RDF>
  </metadata>
  <defs
     id="defs4166" />
  <style
     id="style4158"
     type="text/css"><![CDATA[
.style0 {
  font-size: 340px;
  font-family: "Tahoma";
  font-weight: 700;
  fill: rgb(193,193,193);
}
]]></style>
  <path
     id="path4194"
     d="M 19.047375,40.973941 C 8.5713191,30.481503 0,21.426525 0,20.85177 0,20.277014 3.140596,15.350238 6.9791021,9.9033803 L 13.958204,0 39.08446,0.33805 l 25.126257,0.338051 7.176502,9.999999 7.176501,10 -19.579708,19.687501 c -10.768839,10.828125 -19.874357,19.6875 -20.234485,19.6875 -0.360127,0 -9.226096,-8.584722 -19.702152,-19.07716 z M 46.25,39.235012 C 50.03125,31.260191 53.3125,24.243884 53.541666,23.643219 53.770834,23.042554 47.20046,22.5511 38.940837,22.5511 l -15.017494,0 6.788328,14.391602 C 34.445252,44.858083 37.5,51.889333 37.5,52.567702 c 0,3.616185 2.571736,-0.302464 8.75,-13.33269 z m 25,-16.350043 c 0,-0.183628 -3.081146,-0.333869 -6.846991,-0.333869 l -6.846991,0 -6.278009,13.309372 C 47.825104,43.180627 45,49.30184 45,49.463168 45,49.624496 50.90625,43.78552 58.125,36.487665 65.34375,29.189811 71.25,23.068597 71.25,22.884969 Z M 26.285525,35.245677 20.043535,22.5511 l -7.186934,0 -7.1869329,0 13.0394859,13.084015 C 25.88087,42.831322 31.923886,48.543882 32.138076,48.329691 32.352268,48.1155 29.718619,42.227694 26.285525,35.245677 Z M 18.192909,15.501642 C 17.737448,13.686941 16.678892,10.521221 15.840565,8.4667093 L 14.316331,4.731231 9.6453971,11.766165 4.9744641,18.8011 l 7.0232769,0 c 6.966345,0 7.016566,-0.02675 6.195168,-3.299458 z m 27.341292,-3.617224 c -3.250008,-3.804175 -6.257501,-6.7573 -6.683317,-6.5625 -0.425817,0.194801 -3.512185,3.3073073 -6.8586,6.916682 l -6.084389,6.5625 12.767706,0 12.767707,0 -5.909107,-6.916682 z M 71.38458,16.6136 C 70.722721,15.410475 68.752411,12.513404 67.006115,10.175665 L 63.831029,5.92523 62.659326,8.9256653 C 62.01489,10.575904 60.885581,13.472975 60.149751,15.3636 l -1.337873,3.4375 6.888041,0 c 6.185136,0 6.765239,-0.223229 5.684661,-2.1875 z m -42.13362,-6.072337 6.12596,-6.740162 -8.774403,0 -8.774403,0 2.023444,6.872653 c 1.112893,3.77996 2.304692,6.813033 2.648442,6.740164 0.34375,-0.07287 3.381682,-3.165566 6.75096,-6.872655 z M 58.627106,10.3636 61.21352,3.801101 l -8.73176,0 c -4.802467,0 -8.73176,0.402553 -8.73176,0.894563 0,0.962834 11.536411,12.986015 12.007484,12.514131 0.155765,-0.156033 1.447093,-3.23682 2.869622,-6.846195 z"
     style="fill:#939393" />
</svg>
