<?xml version="1.0" encoding="UTF-8" standalone="no"?>
<svg
   xmlns:dc="http://purl.org/dc/elements/1.1/"
   xmlns:cc="http://creativecommons.org/ns#"
   xmlns:rdf="http://www.w3.org/1999/02/22-rdf-syntax-ns#"
   xmlns:svg="http://www.w3.org/2000/svg"
   xmlns="http://www.w3.org/2000/svg"
   version="1.1"
   id="svg4156"
   viewBox="0 0 81.237893 83.62442"
   height="83.62442"
   width="81.237892">
  <metadata
     id="metadata4168">
    <rdf:RDF>
      <cc:Work
         rdf:about="">
        <dc:format>image/svg+xml</dc:format>
        <dc:type
           rdf:resource="http://purl.org/dc/dcmitype/StillImage" />
        <dc:title></dc:title>
      </cc:Work>
    </rdf:RDF>
  </metadata>
  <defs
     id="defs4166" />
  <style
     id="style4158"
     type="text/css"><![CDATA[
.style0 {
  font-size: 340px;
  font-family: "Tahoma";
  font-weight: 700;
  fill: rgb(193,193,193);
}
]]></style>
  <path
     id="path4233"
     d="M 68.075859,79.561922 C 56.431194,65.63341 56.588516,65.742396 50.382752,67.305025 46.12793,68.376401 43.60215,68.369789 40.176821,67.278305 34.648302,65.516646 28.052819,59.508683 26.380237,54.710712 c -1.948812,-5.590367 0.722725,-5.514957 3.587913,0.101275 3.243521,6.357828 7.36322,9.05891 14.790402,9.697333 7.657748,0.658243 13.305067,-2.76543 16.50905,-10.008565 2.605217,-5.889523 1.962957,-12.042442 -1.867206,-17.888007 -2.950831,-4.503539 -1.049076,-5.573623 2.525226,-1.4209 3.721008,4.323169 5.080954,11.283045 3.420349,17.504514 l -1.280594,4.797755 8.580187,7.752651 c 4.719103,4.263957 8.585643,8.345431 8.592312,9.069941 0.01264,1.372943 -7.65876,9.307709 -8.998768,9.307709 -0.42178,0 -2.295243,-1.828125 -4.163249,-4.0625 z M 77.5,74.680687 c 0,-1.717365 -3.320105,-1.205415 -4.954556,0.763979 -2.410159,2.904063 -0.221805,4.976828 2.578652,2.44245 C 76.430844,76.704527 77.5,75.261633 77.5,74.680687 Z m -8.75,-8.647153 c -3.09375,-2.696292 -6.294928,-4.903871 -7.113729,-4.905731 -3.455842,-0.0079 -2.708099,2.884405 2.272921,8.791599 l 5.307273,6.294111 2.579267,-2.638815 L 74.375,70.935883 68.75,66.033534 Z M 48.59749,60.65665 C 53.52555,58.873817 58.75,53.289447 58.75,49.804717 c 0,-1.336662 0.5625,-2.430295 1.25,-2.430295 1.62925,0 1.582946,0.533443 -0.473525,5.455272 -2.183221,5.225184 -7.650127,9.572757 -11.882549,9.449631 -3.057765,-0.08895 -2.996168,-0.193774 0.953564,-1.622675 z M 0,58.787707 c 0,-0.597693 2.355687,-4.045333 5.23486,-7.661421 4.332504,-5.441396 5.186255,-7.398467 4.952885,-11.353599 -0.231564,-3.924517 0.294292,-5.156475 2.941345,-6.890891 2.638125,-1.728565 3.804044,-1.847405 6.422014,-0.654578 1.759281,0.801582 3.472151,2.50313 3.806379,3.781219 0.398148,1.522519 2.166327,2.576729 5.127926,3.05733 3.965458,0.643505 4.918532,0.256444 7.765441,-3.153695 2.546719,-3.050557 4.289605,-3.916869 8.097562,-4.024939 4.506277,-0.127889 5.142107,-0.628056 8.914817,-7.012711 3.35322,-5.674743 3.945212,-7.756376 3.390897,-11.92347 -0.736141,-5.5339799 1.015828,-8.0563849 5.848508,-8.4204199 1.486317,-0.111961 3.238555,-1.205388 3.893861,-2.429838 2.093672,-3.912064 3.055493,-2.41667504 3.191015,4.961228 0.146858,7.9950459 -1.871665,11.5624999 -6.542249,11.5624999 -2.150855,0 -3.842971,1.826142 -7.153416,7.72001 -3.975119,7.077241 -4.204697,8.032632 -2.757381,11.474786 2.280882,5.424623 0.17523,10.594459 -5.23595,12.855394 -4.908653,2.050966 -9.747686,0.48872 -12.158213,-3.92519 -0.750916,-1.375 -1.483627,-2.712076 -1.62825,-2.971281 -0.144621,-0.259205 -2.519091,-0.883847 -5.276601,-1.388093 -4.06321,-0.743011 -5.412631,-0.475946 -7.118286,1.408781 -1.157548,1.279077 -3.63737,2.325593 -5.510717,2.325593 -2.666081,0 -4.533806,1.493658 -8.596759,6.875 C 2.828037,59.332673 0,61.483811 0,58.787707 Z m 48.964074,-12.23202 c 2.842791,-2.57269 2.931183,-6.396411 0.217191,-9.395339 C 45.192265,32.752552 37.5,35.843298 37.5,41.853871 c 0,5.988923 6.910184,8.823031 11.464074,4.701816 z m -9.439596,-5.189405 c -0.393539,-0.636759 0.396211,-2.16385 1.754998,-3.393536 2.816246,-2.548668 3.244302,-1.098755 0.67577,2.288977 -0.943384,1.244265 -2.03723,1.741316 -2.430768,1.104559 z M 21.25,39.358498 c 0,-0.92288 -0.752298,-2.302315 -1.671771,-3.065411 -1.276335,-1.059264 -2.33592,-0.680494 -4.479566,1.601314 -2.65351,2.824531 -2.683623,3.05825 -0.548008,4.2534 C 17.191806,43.625863 21.25,41.936216 21.25,39.358498 Z M 66.824281,12.680847 c 0.422169,-1.100153 0.04379,-2.7078729 -0.840851,-3.5727109 -1.295475,-1.266482 -2.211399,-1.07838 -4.707376,0.9667419 -2.949102,2.416398 -2.988558,2.619893 -0.816,4.208505 2.639037,1.929711 5.262247,1.269178 6.364227,-1.602536 z"
     style="fill:#9c9c9c" />
</svg>
