<?xml version="1.0" encoding="UTF-8" standalone="no"?>
<svg
   xmlns:dc="http://purl.org/dc/elements/1.1/"
   xmlns:cc="http://creativecommons.org/ns#"
   xmlns:rdf="http://www.w3.org/1999/02/22-rdf-syntax-ns#"
   xmlns:svg="http://www.w3.org/2000/svg"
   xmlns="http://www.w3.org/2000/svg"
   viewBox="0 0 85.843925 59.935986"
   height="59.935986"
   width="85.843925"
   version="1.1"
   id="svg2">
  <metadata
     id="metadata8">
    <rdf:RDF>
      <cc:Work
         rdf:about="">
        <dc:format>image/svg+xml</dc:format>
        <dc:type
           rdf:resource="http://purl.org/dc/dcmitype/StillImage" />
        <dc:title></dc:title>
      </cc:Work>
    </rdf:RDF>
  </metadata>
  <defs
     id="defs6" />
  <path
     id="path3338"
     d="M 4.1761993,58.875919 0.42619929,58.202613 0.06689029,45.896749 c -0.233578,-7.999715 0.148037,-12.917178 1.09055501,-14.052844 1.928171,-2.323304 12.8593367,-2.323304 14.7875077,0 0.942407,1.135532 1.324105,6.050939 1.090555,14.043907 l -0.359309,12.296928 -4.375,0.682243 c -2.4062496,0.375232 -6.0624996,0.379253 -8.1249997,0.0089 z m 5.6250001,-3.153994 c 0,-1.03125 -0.529303,-1.875 -1.176229,-1.875 -1.576222,0 -2.705118,1.951986 -1.706455,2.95065 1.40773,1.40773 2.882684,0.857363 2.882684,-1.07565 z m 4.9999996,-11.875 0,-8.75 -6.2499996,0 -6.2500001,0 0,8.75 0,8.75 6.2500001,0 6.2499996,0 0,-8.75 z M 4.0288703,41.415891 c 0.100872,-2.005689 0.686784,-4.10734 1.3020281,-4.670336 0.646335,-0.591449 0.769364,0.03188 0.291395,1.47637 -0.768368,2.322115 -0.706027,2.34435 0.876142,0.3125 2.680527,-3.442383 3.5577736,-2.556486 1.468753,1.483235 -2.66083,5.145478 -4.1534281,5.675399 -3.9383181,1.398231 z M 29.022021,58.270889 c -1.847747,-4.81515 0.254997,-5.787835 11.696237,-5.410428 10.758747,0.354893 10.957941,0.41827 10.957941,3.486464 0,3.068194 -0.199194,3.131571 -10.957941,3.486464 -8.939572,0.294886 -11.09393,0.0071 -11.696237,-1.5625 z m 27.90114,-0.218668 c -0.479579,-0.47958 -0.871962,-9.195922 -0.871962,-19.36965 0,-17.008801 0.194611,-18.60184 2.417824,-19.791666 3.754468,-2.009331 24.469536,-1.66332 26.213356,0.437851 0.97758,1.177915 1.32639,7.674745 1.09056,20.3125 l -0.34674,18.580669 -13.81554,0.351129 C 64.012115,58.766175 57.40274,58.531804 56.923161,58.052221 Z M 73.264739,55.3313 c 0.27214,-0.816406 -0.39583,-1.484375 -1.48437,-1.484375 -1.08855,0 -1.97917,0.890625 -1.97917,1.979166 0,2.207409 2.69095,1.822988 3.46354,-0.494791 z m 10.28646,-17.77964 0,-15.045265 -12.1875,0.357765 -12.1875,0.357765 -0.358746,13.040495 c -0.19731,7.172272 -0.07434,13.781648 0.273269,14.6875 0.461737,1.203269 3.841949,1.647005 12.546247,1.647005 l 11.91423,0 0,-15.045265 z m -19.15996,-4.980881 c 4.18824,-7.030837 6.65996,-10.008653 6.65996,-8.023639 0,1.675602 -8.955563,15.549785 -10.037138,15.549785 -0.60837,0 0.911359,-3.386766 3.377178,-7.526146 z m -3.657374,0.542145 c -0.398764,-0.398763 0.463173,-2.738869 1.915414,-5.200234 1.452241,-2.461366 2.83912,-3.879156 3.08196,-3.150645 0.55844,1.675332 -4.020785,9.327469 -4.997374,8.350879 z M 19.418231,49.29729 c -0.476867,-0.476868 -0.867032,-3.023281 -0.867032,-5.658699 l 0,-4.791666 18.196872,0 18.196873,0 -0.384372,5.3125 -0.384373,5.3125 -16.945468,0.346199 c -9.320007,0.190408 -17.335632,-0.04396 -17.8125,-0.520834 z M 8.5511994,15.971925 c 0,-8.3472223 0.527508,-13.4025083 1.4999996,-14.3750003 2.129233,-2.12923295 58.62077,-2.12923295 60.75,0 2.29498,2.294985 1.97833,14.7500003 -0.375,14.7500003 -1.30952,0 -1.875,-1.319445 -1.875,-4.375 l 0,-4.3750003 -28.125,0 -28.125,0 0,10.6250003 c 0,8.611111 -0.355392,10.625 -1.875,10.625 -1.5453076,0 -1.8749996,-2.263889 -1.8749996,-12.875 z m 4.9999996,7.303241 c 0,-1.139802 17.690275,-14.6546323 18.336432,-14.0084743 1.126072,1.1260703 -0.663222,3.0508343 -8.296057,8.9241643 -6.536095,5.02941 -10.040375,6.80393 -10.040375,5.08431 z m 0.724936,-6.766541 c -0.783608,-1.267905 7.807346,-8.2960833 8.857333,-7.2460983 1.004195,1.0041963 -0.497958,2.9261123 -4.532313,5.7988273 -1.993444,1.419456 -3.939702,2.070728 -4.32502,1.447271 z"
     style="fill:#17bee8" />
</svg>
