<?xml version="1.0" encoding="utf-8"?>
<svg xmlns="http://www.w3.org/2000/svg"
	xmlns:xlink="http://www.w3.org/1999/xlink"
	width="22px" height="23px" viewBox="0 0 22 23">
<path fillRule="evenodd" d="M 10.97 23C 10.63 23 10.28 22.86 10.01 22.6 9.48 22.06 9.48 21.2 10.01 20.67 10.01 20.67 17.27 13.37 17.27 13.37 17.27 13.37 1.38 13.37 1.38 13.37 0.62 13.37-0 12.76-0 12-0 11.24 0.62 10.62 1.38 10.62 1.38 10.62 17.31 10.62 17.31 10.62 17.31 10.62 10.01 3.29 10.01 3.29 9.48 2.76 9.48 1.9 10.01 1.36 10.28 1.1 10.63 0.96 10.97 0.96 11.32 0.96 11.67 1.1 11.94 1.36 11.94 1.36 21.33 10.8 21.33 10.8 21.42 10.85 21.5 10.91 21.58 10.99 21.66 11.07 21.73 11.17 21.79 11.26 21.92 11.48 22 11.73 22 12 22 12.51 21.72 12.96 21.3 13.2 21.3 13.2 11.94 22.6 11.94 22.6 11.67 22.86 11.32 23 10.97 23 10.97 23 10.97 23 10.97 23Z" fill="rgb(255,255,255)"/></svg>