<?xml version="1.0" encoding="UTF-8" standalone="no"?>
<svg
   xmlns:dc="http://purl.org/dc/elements/1.1/"
   xmlns:cc="http://creativecommons.org/ns#"
   xmlns:rdf="http://www.w3.org/1999/02/22-rdf-syntax-ns#"
   xmlns:svg="http://www.w3.org/2000/svg"
   xmlns="http://www.w3.org/2000/svg"
   version="1.1"
   id="svg4156"
   viewBox="0 0 35.161652 73.002686"
   height="73.002686"
   width="35.161652">
  <metadata
     id="metadata4168">
    <rdf:RDF>
      <cc:Work
         rdf:about="">
        <dc:format>image/svg+xml</dc:format>
        <dc:type
           rdf:resource="http://purl.org/dc/dcmitype/StillImage" />
        <dc:title></dc:title>
      </cc:Work>
    </rdf:RDF>
  </metadata>
  <defs
     id="defs4166" />
  <style
     id="style4158"
     type="text/css"><![CDATA[
.style0 {
  font-size: 340px;
  font-family: "Tahoma";
  font-weight: 700;
  fill: rgb(193,193,193);
}
]]></style>
  <path
     id="path4181"
     d="m 14.511052,67.653079 c -2.954782,-7.736984 -2.722919,-8.395709 2.955177,-8.395709 3.144061,0 5,0.575106 5,1.549366 0,2.189153 -4.217194,12.1903 -5.142678,12.195949 -0.422222,0.0026 -1.687847,-2.404746 -2.8125,-5.349606 z m 4.696441,-1.622943 c 1.31376,-3.423604 0.848818,-4.272766 -2.339465,-4.272766 -2.851108,0 -2.984644,0.249231 -1.674356,3.125 1.639362,3.598007 2.931759,3.967574 4.013821,1.147766 z M 4.3272468,58.94487 C 0.33948678,47.828645 -0.88374722,41.731491 0.62296178,40.481035 1.6625248,39.618274 2.2456408,36.075197 2.2456408,30.621462 c 0,-10.554667 3.40079,-19.079737 10.2978342,-25.814522 L 17.466229,0 22.388983,4.80694 c 6.902227,6.739846 10.429867,15.530879 10.438192,26.012434 0.0041,5.201586 0.603834,8.932577 1.563834,9.729311 1.23025,1.021014 1.03506,3.054803 -0.92977,9.687995 -2.917121,9.848044 -3.932072,11.25148 -6.559807,9.070654 C 24.522979,57.333393 10.291458,57.182141 8.363288,59.110311 6.530904,60.942695 5.0217408,60.880832 4.3272468,58.94487 Z M 28.30827,39.258135 c 1.94721,-8.270128 2.10981,-13.750765 0.407959,-13.750765 -0.6875,0 -1.25,2.13182 -1.25,4.737376 0,2.605558 -0.84375,7.976752 -1.875,11.935988 -1.03125,3.959236 -1.857895,7.593042 -1.836989,8.075123 0.10275,2.369474 3.125375,-4.929981 4.55403,-10.997722 z M 21.751943,26.043084 c 3.790888,-3.790888 1.047231,-10.535714 -4.285714,-10.535714 -2.982547,0 -6.25,3.267452 -6.25,6.25 0,2.982547 3.267453,6.25 6.25,6.25 1.276786,0 3.205357,-0.883929 4.285714,-1.964286 z m -7.321428,-1.25 c -1.080357,-1.080357 -1.964286,-2.446428 -1.964286,-3.035714 0,-0.589286 0.883929,-1.955357 1.964286,-3.035714 1.080357,-1.080357 2.446428,-1.964286 3.035714,-1.964286 1.388616,0 5,3.611384 5,5 0,0.589286 -0.883929,1.955357 -1.964286,3.035714 -1.080357,1.080357 -2.446428,1.964286 -3.035714,1.964286 -0.589286,0 -1.955357,-0.883929 -3.035714,-1.964286 z"
     style="fill:#08bae6" />
</svg>
