<?xml version="1.0" encoding="UTF-8" standalone="no"?>
<svg
   xmlns:dc="http://purl.org/dc/elements/1.1/"
   xmlns:cc="http://creativecommons.org/ns#"
   xmlns:rdf="http://www.w3.org/1999/02/22-rdf-syntax-ns#"
   xmlns:svg="http://www.w3.org/2000/svg"
   xmlns="http://www.w3.org/2000/svg"
   version="1.1"
   id="svg3340"
   viewBox="0 0 589.31421 67.255927"
   height="18.981117mm"
   width="166.31757mm">
  <defs
     id="defs3342" />
  <metadata
     id="metadata3345">
    <rdf:RDF>
      <cc:Work
         rdf:about="">
        <dc:format>image/svg+xml</dc:format>
        <dc:type
           rdf:resource="http://purl.org/dc/dcmitype/StillImage" />
        <dc:title></dc:title>
      </cc:Work>
    </rdf:RDF>
  </metadata>
  <g
     transform="translate(-241.81568,-489.16636)"
     id="layer1">
    <g
       transform="translate(39.198567,-131.7739)"
       id="g3359">
      <path
         id="path3375"
         d="m 311.19576,652.03845 c 0,-3.78125 0.23433,-5.32813 0.52074,-3.4375 0.2864,1.89062 0.2864,4.98437 0,6.875 -0.28641,1.89062 -0.52074,0.34375 -0.52074,-3.4375 z m 291.24999,0 c 0,-3.78125 0.23434,-5.32813 0.52074,-3.4375 0.28642,1.89062 0.28642,4.98437 0,6.875 -0.2864,1.89062 -0.52074,0.34375 -0.52074,-3.4375 z m -61.42721,-12.5 c 0,-1.71875 0.28373,-2.42188 0.63049,-1.5625 0.34676,0.85937 0.34676,2.26562 0,3.125 -0.34676,0.85937 -0.63049,0.15625 -0.63049,-1.5625 z"
         style="fill:#f9f9f9" />
      <path
         id="path3373"
         d="m 254.66986,667.76762 c -0.0543,-1.31771 0.24116,-2.05599 0.65653,-1.64063 0.41536,0.41537 0.45977,1.49349 0.0987,2.39583 -0.39904,0.99717 -0.69523,0.70097 -0.75521,-0.7552 z"
         style="fill:#f2f2f2" />
      <path
         id="path3371"
         d="m 791.19575,680.78845 c 0,-3.78125 0.23434,-5.32813 0.52074,-3.4375 0.28642,1.89062 0.28642,4.98437 0,6.875 -0.2864,1.89062 -0.52074,0.34375 -0.52074,-3.4375 z m -114.86048,-37.5 c 0,-12.03125 0.18747,-16.95313 0.41662,-10.9375 0.22914,6.01562 0.22914,15.85937 0,21.875 -0.22915,6.01562 -0.41662,1.09375 -0.41662,-10.9375 z"
         style="fill:#ececec" />
      <path
         id="path3369"
         d="m 694.90972,687.53324 c 0.41536,-0.41536 1.49348,-0.45977 2.39584,-0.0987 0.99716,0.39904 0.70097,0.69523 -0.75522,0.75521 -1.3177,0.0543 -2.05598,-0.24116 -1.64062,-0.65652 z M 202.61711,654.53845 c 0,-18.21875 0.17474,-25.67188 0.38832,-16.5625 0.21357,9.10937 0.21357,24.01562 0,33.125 -0.21358,9.10937 -0.38832,1.65625 -0.38832,-16.5625 z m 66.25,0 c 0,-18.21875 0.17474,-25.67188 0.38831,-16.5625 0.21358,9.10937 0.21358,24.01562 0,33.125 -0.21357,9.10937 -0.38831,1.65625 -0.38831,-16.5625 z m 221.25,0 c 0,-18.21875 0.17475,-25.67188 0.38832,-16.5625 0.21358,9.10937 0.21358,24.01562 0,33.125 -0.21357,9.10937 -0.38832,1.65625 -0.38832,-16.5625 z m 16.16061,20.625 c -0.004,-6.875 0.20399,-9.84698 0.46055,-6.6044 0.25656,3.24258 0.25922,8.86758 0.006,12.5 -0.25364,3.63242 -0.46355,0.9794 -0.4668,-5.8956 z m 53.83939,-20.625 c 0,-18.21875 0.17474,-25.67188 0.38832,-16.5625 0.21357,9.10937 0.21357,24.01562 0,33.125 -0.21358,9.10937 -0.38832,1.65625 -0.38832,-16.5625 z m 60,0 c 0,-18.21875 0.17474,-25.67188 0.38832,-16.5625 0.21357,9.10937 0.21357,24.01562 0,33.125 -0.21358,9.10937 -0.38832,1.65625 -0.38832,-16.5625 z m 16.17678,18.75 c 0,-7.90625 0.20296,-11.14063 0.45103,-7.1875 0.24806,3.95312 0.24806,10.42187 0,14.375 -0.24807,3.95312 -0.45103,0.71875 -0.45103,-7.1875 z m -417.57262,-6.25 c 0,-4.46875 0.22687,-6.29688 0.50415,-4.0625 0.27729,2.23437 0.27729,5.89062 0,8.125 -0.27728,2.23437 -0.50415,0.40625 -0.50415,-4.0625 z m 66.26008,-0.625 c -0.005,-4.8125 0.21585,-6.93442 0.49199,-4.71538 0.27614,2.21904 0.28068,6.15654 0.0101,8.75 -0.27064,2.59346 -0.49657,0.77788 -0.50212,-4.03462 z m 291.25,0 c -0.005,-4.8125 0.21586,-6.93442 0.49199,-4.71538 0.27614,2.21904 0.28068,6.15654 0.01,8.75 -0.27051,2.59346 -0.49644,0.77788 -0.50199,-4.03462 z m 187.62078,-18.125 c 0,-14.78125 0.18083,-20.82813 0.40181,-13.4375 0.221,7.39062 0.221,19.48437 0,26.875 -0.22098,7.39062 -0.40181,1.34375 -0.40181,-13.4375 z m -32.51447,-4.375 c -10e-4,-12.375 0.18467,-17.60658 0.41331,-11.62573 0.22863,5.98085 0.22971,16.10585 0.002,22.5 -0.22744,6.39415 -0.4145,1.50073 -0.41581,-10.87427 z m -225.10631,-1.25 c -0.005,-4.8125 0.21586,-6.93442 0.49199,-4.71538 0.27614,2.21904 0.28068,6.15654 0.01,8.75 -0.27051,2.59346 -0.49644,0.77788 -0.50199,-4.03462 z m -287.52283,-1.25 c -0.007,-4.125 0.2206,-5.9632 0.50582,-4.08489 0.28522,1.87832 0.29096,5.25332 0.0128,7.5 -0.27821,2.24669 -0.51157,0.70989 -0.51858,-3.41511 z m 417.48723,-0.625 c 0,-3.78125 0.23434,-5.32813 0.52074,-3.4375 0.28642,1.89062 0.28642,4.98437 0,6.875 -0.2864,1.89062 -0.52074,0.34375 -0.52074,-3.4375 z m -351.26705,-0.625 c 0.009,-3.4375 0.25214,-4.69539 0.53946,-2.79531 0.28731,1.90008 0.27964,4.71258 -0.0171,6.25 -0.2967,1.53742 -0.53178,-0.0172 -0.52239,-3.45469 z m 291.24999,0 c 0.01,-3.4375 0.25215,-4.69539 0.53947,-2.79531 0.28732,1.90008 0.27963,4.71258 -0.017,6.25 -0.29677,1.53742 -0.53184,-0.0172 -0.52247,-3.45469 z m 87.51706,-11.875 c 0,-3.78125 0.23434,-5.32813 0.52074,-3.4375 0.28642,1.89062 0.28642,4.98437 0,6.875 -0.2864,1.89062 -0.52074,0.34375 -0.52074,-3.4375 z m -428.78603,-5.75521 c 0.41537,-0.41536 1.49349,-0.45977 2.39583,-0.0987 0.99717,0.39903 0.70097,0.69523 -0.7552,0.75521 -1.31771,0.0543 -2.05599,-0.24116 -1.64063,-0.65653 z m 288.75,0 c 0.41536,-0.41536 1.49348,-0.45977 2.39584,-0.0987 0.99716,0.39903 0.70097,0.69523 -0.75522,0.75521 -1.3177,0.0543 -2.05598,-0.24116 -1.64062,-0.65653 z m -128.75,-1.25 c 0.41536,-0.41536 1.49349,-0.45977 2.39584,-0.0987 0.99716,0.39903 0.70097,0.69523 -0.75522,0.75521 -1.3177,0.0543 -2.05599,-0.24116 -1.64062,-0.65653 z"
         style="fill:#e9e9e9" />
      <path
         id="path3367"
         d="m 747.61711,654.53845 c 0,-18.21875 0.17474,-25.67188 0.38832,-16.5625 0.21357,9.10937 0.21357,24.01562 0,33.125 -0.21358,9.10937 -0.38832,1.65625 -0.38832,-16.5625 z m -32.53184,-11.25 c 0,-12.03125 0.18747,-16.95313 0.41662,-10.9375 0.22914,6.01562 0.22914,15.85937 0,21.875 -0.22915,6.01562 -0.41662,1.09375 -0.41662,-10.9375 z m -359.06673,11.25 c 0,-1.71875 0.28373,-2.42188 0.63049,-1.5625 0.34676,0.85937 0.34676,2.26562 0,3.125 -0.34676,0.85937 -0.63049,0.15625 -0.63049,-1.5625 z"
         style="fill:#e2e2e2" />
      <path
         id="path3365"
         d="m 409.97127,674.53845 c 0,-4.46875 0.22687,-6.29688 0.50416,-4.0625 0.27727,2.23437 0.27727,5.89062 0,8.125 -0.27729,2.23437 -0.50416,0.40625 -0.50416,-4.0625 z m 251.22448,-21.25 c 0,-3.78125 0.23434,-5.32813 0.52074,-3.4375 0.28642,1.89062 0.28642,4.98437 0,6.875 -0.2864,1.89062 -0.52074,0.34375 -0.52074,-3.4375 z m -251.22448,-18.75 c 0,-4.46875 0.22687,-6.29688 0.50416,-4.0625 0.27727,2.23437 0.27727,5.89062 0,8.125 -0.27729,2.23437 -0.50416,0.40625 -0.50416,-4.0625 z"
         style="fill:#dcdcdc" />
      <path
         id="path3363"
         d="m 312.44576,680.78845 c 0,-3.78125 0.23433,-5.32813 0.52074,-3.4375 0.2864,1.89062 0.2864,4.98437 0,6.875 -0.28641,1.89062 -0.52074,0.34375 -0.52074,-3.4375 z m 291.24999,0 c 0,-3.78125 0.23434,-5.32813 0.52074,-3.4375 0.28642,1.89062 0.28642,4.98437 0,6.875 -0.2864,1.89062 -0.52074,0.34375 -0.52074,-3.4375 z m 88.88952,-37.5 c 0,-12.03125 0.18747,-16.95313 0.41662,-10.9375 0.22914,6.01562 0.22914,15.85937 0,21.875 -0.22915,6.01562 -0.41662,1.09375 -0.41662,-10.9375 z m -380.13951,-15 c 0,-3.78125 0.23433,-5.32813 0.52074,-3.4375 0.2864,1.89062 0.2864,4.98437 0,6.875 -0.28641,1.89062 -0.52074,0.34375 -0.52074,-3.4375 z m 291.24999,0 c 0,-3.78125 0.23434,-5.32813 0.52074,-3.4375 0.28642,1.89062 0.28642,4.98437 0,6.875 -0.2864,1.89062 -0.52074,0.34375 -0.52074,-3.4375 z"
         style="fill:#d5d5d5" />
      <path
         id="path3361"
         d="m 380.19618,687.11961 c -10.51309,-2.55939 -19.4906,-11.39185 -21.93479,-21.58037 -2.03225,-8.47138 -0.95181,-21.62831 2.29885,-27.99414 7.5032,-14.69363 26.5934,-20.45492 44.30101,-13.36974 4.70034,1.88071 4.70993,1.89952 4.70993,9.24881 0,6.80307 -1.22615,9.18669 -3.13604,6.09642 -1.64683,-2.66464 -10.74154,-6.23194 -15.87666,-6.22747 -7.0069,0.006 -13.09974,3.7914 -15.62963,9.7102 -2.62321,6.13713 -2.53477,18.61646 0.16898,23.84494 5.401,10.44439 19.79737,11.8985 31.66085,3.19793 l 2.8125,-2.06267 0,7.4766 0,7.4766 -8.15125,2.67586 c -8.27486,2.71645 -14.45371,3.15519 -21.22375,1.50703 z m 313.98985,-0.54163 c -7.3003,-2.05272 -13.75748,-7.99865 -15.68955,-14.44736 -0.83978,-2.80291 -1.4253,-14.06921 -1.4253,-27.4247 l 0,-22.66747 7.5,0 7.5,0 0.007,20.9375 c 0.009,29.01247 1.38358,32.8125 11.8675,32.8125 10.58322,0 11.875,-3.48767 11.875,-32.06153 l 0,-21.68847 7.5,0 7.5,0 0,23.98035 c 0,21.79186 -0.23911,24.47427 -2.62006,29.39266 -4.93179,10.18772 -19.95569,15.11978 -34.01509,11.16652 z m -490.86485,-31.90053 0,-32.639 14.44647,0 c 7.94557,0 16.95342,0.63125 20.01745,1.40279 7.6556,1.9277 11.78608,6.98935 11.78608,14.44312 0,4.76996 -0.66848,6.32257 -4.27501,9.92909 l -4.275,4.27501 4.24763,1.77478 c 4.61148,1.92679 9.29025,8.38681 9.29771,12.83741 0.0106,6.31256 -3.92561,12.83805 -9.83259,16.30064 -5.42461,3.17984 -6.90533,3.42164 -23.60024,3.85394 l -17.8125,0.46123 0,-32.63901 z m 32.22187,17.91512 c 1.77422,-1.24272 2.77813,-3.2431 2.77813,-5.53571 0,-5.73723 -2.83446,-7.51841 -11.96429,-7.51841 l -8.03571,0 0,7.5 0,7.5 7.22187,0 c 4.51327,0 8.26382,-0.72981 10,-1.94588 z m -2.93616,-26.26841 c 1.08036,-1.08035 1.96429,-3.29017 1.96429,-4.91071 0,-4.69374 -3.20106,-6.875 -10.08929,-6.875 l -6.16071,0 0,6.875 0,6.875 6.16071,0 c 3.93399,0 6.87069,-0.70997 8.125,-1.96429 z m 36.96429,8.21429 0,-32.5 21.25,0 21.25,0 0,6.25 0,6.25 -13.75,0 -13.75,0 0,5.625 0,5.625 13.125,0 13.125,0 0,6.25 0,6.25 -13.125,0 -13.125,0 0,8.125 0,8.125 13.75,0 13.75,0 0,6.25 0,6.25 -21.25,0 -21.25,0 0,-32.5 z m 150,31.53321 c 0,-0.97089 18.91525,-57.70168 20.63855,-61.8993 0.77684,-1.89226 2.20336,-2.18411 9.16446,-1.875 l 8.24441,0.36609 10.93587,32.1875 10.93585,32.1875 -7.95989,0 -7.9599,0 -1.49935,-6.25 -1.49935,-6.25 -11.63481,0 -11.63481,0 -1.60183,6.25 -1.60183,6.25 -7.26368,0 c -3.99503,0 -7.26369,-0.43506 -7.26369,-0.96679 z m 36.25,-24.78994 c 0,-1.54326 -6.41999,-21.74327 -6.91046,-21.74327 -0.51333,0 -6.83954,20.00383 -6.83954,21.62701 0,0.48014 3.09375,0.87299 6.875,0.87299 3.78125,0 6.875,-0.34053 6.875,-0.75673 z m 35,-6.74327 0,-32.5 14.31347,0 c 18.06492,0 25.85064,1.60642 30.54695,6.30273 8.07195,8.07196 5.18511,23.65082 -5.48962,29.6247 -2.57357,1.44024 -2.62602,1.35721 13.82255,21.88507 l 5.75919,7.1875 -9.32397,0 -9.32396,0 -8.92581,-11.875 c -7.77838,-10.34844 -9.40486,-11.875 -12.65231,-11.875 l -3.72649,0 0,11.875 0,11.875 -7.5,0 -7.5,0 0,-32.5 z m 31.25,-6.25 c 3.03699,-3.03698 3.23735,-8.36338 0.43126,-11.46407 -1.55466,-1.71789 -3.8843,-2.28593 -9.375,-2.28593 l -7.30626,0 0,8.125 0,8.125 6.875,0 c 5.20834,0 7.48106,-0.60606 9.375,-2.5 z m 38.75,6.25 0,-32.5 21.25,0 21.25,0 0,6.25 0,6.25 -13.75,0 -13.75,0 0,5.625 0,5.625 13.125,0 13.125,0 0,6.25 0,6.25 -13.125,0 -13.125,0 0,8.125 0,8.125 13.75,0 13.75,0 0,6.25 0,6.25 -21.25,0 -21.25,0 0,-32.5 z m 60,0 0,-32.5 21.25,0 21.25,0 0,6.25 0,6.25 -13.75,0 -13.75,0 0,6.25 0,6.25 12.5,0 12.5,0 0,6.25 0,6.25 -12.5,0 -12.5,0 0,13.75 0,13.75 -7.5,0 -7.5,0 0,-32.5 z m 127.5,0 0,-32.5 7.5,0 7.5,0 0,26.25 0,26.25 13.75,0 13.75,0 0,6.25 0,6.25 -21.25,0 -21.25,0 0,-32.5 z"
         style="fill:#cfcfcf" />
    </g>
  </g>
</svg>
