<?xml version="1.0" encoding="UTF-8" standalone="no"?>
<svg
   xmlns:dc="http://purl.org/dc/elements/1.1/"
   xmlns:cc="http://creativecommons.org/ns#"
   xmlns:rdf="http://www.w3.org/1999/02/22-rdf-syntax-ns#"
   xmlns:svg="http://www.w3.org/2000/svg"
   xmlns="http://www.w3.org/2000/svg"
   id="svg2"
   preserveAspectRatio="xMidYMid meet"
   viewBox="0 0 38 33.038639"
   height="33.038639pt"
   width="38pt"
   version="1.0">
  <metadata
     id="metadata34">
    <rdf:RDF>
      <cc:Work
         rdf:about="">
        <dc:format>image/svg+xml</dc:format>
        <dc:type
           rdf:resource="http://purl.org/dc/dcmitype/StillImage" />
        <dc:title></dc:title>
      </cc:Work>
    </rdf:RDF>
  </metadata>
  <defs
     id="defs32" />
  <path
     id="path4173"
     d="M 9.6724222,23.14427 C 4.35259,17.127569 0,11.69377 0,11.069163 0,10.444555 1.132581,7.698472 2.516846,4.966757 L 5.033692,0 19,0 32.966308,0 35.483154,4.966757 C 36.867419,7.698472 38,10.445133 38,11.070446 38,11.968567 26.729538,25.974803 20.521328,32.791864 19.58645,33.818426 17.358484,31.837166 9.6724222,23.14427 Z M 22.12583,17.75 23.970816,13 l -4.934381,0 -4.934382,0 1.567825,3.75 c 0.862303,2.0625 2.01798,4.875 2.56817,6.25 0.73398,1.834316 1.139135,2.100589 1.521572,1 0.286673,-0.825 1.351468,-3.6375 2.36621,-6.25 z m 7.98933,-1.5 2.933342,-3.25 -2.774251,0.01708 c -2.449462,0.01508 -3.031303,0.688249 -4.969918,5.75 -2.124961,5.548303 -2.130084,5.652413 -0.159091,3.23292 1.120117,-1.375 3.356581,-3.9625 4.969918,-5.75 z M 12.236418,17.5 C 10.818823,13.675133 10.15964,13 7.842735,13 l -2.725867,0 4.0953632,4.5 c 2.2524498,2.475 4.2296068,4.5 4.3936838,4.5 0.164076,0 -0.452197,-2.025 -1.369497,-4.5 z M 7.702213,7.245774 C 7.137311,6.00595 6.584172,5.10595 6.473014,5.245774 6.361856,5.385599 5.80433,6.4 5.234067,7.5 c -0.889943,1.71664 -0.71579,2 1.229199,2 1.988314,0 2.14016,-0.276278 1.238947,-2.254226 z M 32.805117,7.471623 C 31.969423,5.637476 31.430363,5.294257 30.841868,6.221623 29.624613,8.139805 29.820602,8.80647 31.75,9.310675 32.7125,9.562202 33.602853,9.8201977 33.728561,9.8839987 33.85427,9.9477987 33.43872,8.86223 32.805117,7.471623 Z M 21,6.5 C 19.708255,5.125 18.556568,4 18.440696,4 18.324824,4 17.492892,5.125 16.591957,6.5 L 14.953894,9 19.151261,9 23.348628,9 21,6.5 Z M 14,4.377556 C 14,4.1699 13.114123,4 12.031385,4 10.677709,4 10.245631,4.47653 10.648168,5.525524 11.09959,6.701911 11.550133,6.78832 12.616783,5.903079 13.377552,5.271696 14,4.585211 14,4.377556 Z M 27.361626,5.5 C 27.751202,4.484783 27.311136,4 26,4 24.68886,4 24.248798,4.484783 24.638374,5.5 24.954956,6.325 25.567688,7 26,7 26.432312,7 27.045044,6.325 27.361626,5.5 Z"
     style="fill:#fefefe" />
</svg>
