<?xml version="1.0" encoding="UTF-8" standalone="no"?>
<svg
   xmlns:dc="http://purl.org/dc/elements/1.1/"
   xmlns:cc="http://creativecommons.org/ns#"
   xmlns:rdf="http://www.w3.org/1999/02/22-rdf-syntax-ns#"
   xmlns:svg="http://www.w3.org/2000/svg"
   xmlns="http://www.w3.org/2000/svg"
   version="1.1"
   id="svg4175"
   viewBox="0 0 44.999999 47.5"
   height="13.405556mm"
   width="12.7mm">
  <defs
     id="defs4177" />
  <metadata
     id="metadata4180">
    <rdf:RDF>
      <cc:Work
         rdf:about="">
        <dc:format>image/svg+xml</dc:format>
        <dc:type
           rdf:resource="http://purl.org/dc/dcmitype/StillImage" />
        <dc:title></dc:title>
      </cc:Work>
    </rdf:RDF>
  </metadata>
  <g
     transform="translate(-477.42077,-543.2767)"
     id="layer1">
    <path
       id="path4734"
       d="m 503.0889,584.8392 c -2.39588,-3.26563 -4.3701,-6.64063 -4.38714,-7.5 -0.0418,-2.10543 2.69766,-1.9736 5.6676,0.27275 3.50439,2.65058 4.53056,2.40338 10.21262,-2.46025 5.40839,-4.62939 7.83879,-5.4623 7.83879,-2.68641 0,2.13599 -12.17237,18.31141 -13.77976,18.31141 -0.65777,0 -3.15622,-2.67188 -5.55211,-5.9375 z m -24.8348,2.60417 c -0.45833,-0.45834 -0.83333,-10.58334 -0.83333,-22.5 l 0,-21.66667 18.75,0 18.75,0 0,14.80627 c 0,12.75657 -0.31645,15.09264 -2.28593,16.875 -1.25725,1.1378 -2.6635,2.06873 -3.125,2.06873 -0.46149,0 -0.83907,-6.1875 -0.83907,-13.75 l 0,-13.75 -12.8125,10e-4 -12.8125,10e-4 0,16.24944 0,16.24944 8.39352,-9.2e-4 c 7.01967,-7.7e-4 8.60532,0.39482 9.6875,2.4169 0.71169,1.3298 1.29398,2.73605 1.29398,3.12499 0,1.00333 -23.15808,0.88244 -24.16667,-0.12615 z m 7.07029,-16.16783 c -1.16566,-3.03766 1.8812,-4.20862 11.00582,-4.2297 5.74718,-0.0133 8.74712,0.53834 9.79512,1.8011 2.71922,3.27646 0.0981,4.42976 -10.06756,4.42976 -7.98429,0 -10.11813,-0.39784 -10.73338,-2.00116 z m 0.0357,-7.40699 c -1.34223,-3.49779 1.39173,-4.46448 11.55426,-4.08542 8.92524,0.3329 9.88143,0.61049 9.88143,2.86857 0,2.26906 -0.95446,2.53357 -10.33221,2.86337 -8.56032,0.30106 -10.46448,0.0187 -11.10348,-1.64652 z m 0.0357,-7.40699 c -1.34305,-3.49995 0.95223,-4.43486 10.888,-4.43486 7.98429,0 10.11813,0.39784 10.73338,2.00116 1.1885,3.09719 -1.91893,4.20887 -11.82311,4.2297 -6.81699,0.0143 -9.27658,-0.4365 -9.79827,-1.796 z"
       style="fill:#fefefe" />
  </g>
</svg>
