<?xml version="1.0" encoding="UTF-8" standalone="no"?>
<svg
   xmlns:dc="http://purl.org/dc/elements/1.1/"
   xmlns:cc="http://creativecommons.org/ns#"
   xmlns:rdf="http://www.w3.org/1999/02/22-rdf-syntax-ns#"
   xmlns:svg="http://www.w3.org/2000/svg"
   xmlns="http://www.w3.org/2000/svg"
   version="1.1"
   id="svg4156"
   viewBox="0 0 66.990426 54.923046"
   height="54.923046"
   width="66.990425">
  <metadata
     id="metadata4168">
    <rdf:RDF>
      <cc:Work
         rdf:about="">
        <dc:format>image/svg+xml</dc:format>
        <dc:type
           rdf:resource="http://purl.org/dc/dcmitype/StillImage" />
        <dc:title></dc:title>
      </cc:Work>
    </rdf:RDF>
  </metadata>
  <defs
     id="defs4166" />
  <style
     id="style4158"
     type="text/css"><![CDATA[
.style0 {
  font-size: 340px;
  font-family: "Tahoma";
  font-weight: 700;
  fill: rgb(193,193,193);
}
]]></style>
  <path
     id="path4207"
     d="m 27.1875,49.090094 c -4.296875,-3.196143 -7.8125,-6.528188 -7.8125,-7.404545 0,-3.563689 2.968786,-2.937345 9.519312,2.00835 l 6.908012,5.2156 4.598838,-3.056501 C 48.434149,40.514076 57.745971,31.39309 59.988703,26.666884 65.819959,14.378422 55.596027,1.4949798 44.169694,6.7329368 41.876362,7.7842258 39.048551,9.3351573 37.88567,10.179452 36.163138,11.430075 35.326434,11.3119 33.37041,9.5417232 29.381016,5.9313718 23.398035,4.7969988 18.699584,6.7601368 12.954524,9.1605763 10.385683,13.550114 10.860639,20.155026 L 11.25,25.56963 l 5.896207,0.379303 c 5.733355,0.368826 5.95804,0.247988 8.134838,-4.375 3.020025,-6.413798 5.544205,-6.071955 7.843955,1.062286 L 35,28.452806 37.297812,25.379837 c 1.837767,-2.457726 3.214216,-2.996611 6.875001,-2.691587 3.616727,0.301352 4.577187,0.905971 4.577187,2.88138 0,1.901947 -0.962979,2.593042 -4.025479,2.888937 -3.207601,0.309914 -4.592582,1.397959 -6.816679,5.355206 -3.53307,6.286249 -6.248002,5.928748 -7.934027,-1.044749 -1.184044,-4.89727 -1.389829,-5.096407 -2.850142,-2.758073 -1.437388,2.301623 -2.682409,2.489433 -14.348815,2.164493 C 0.95193799,31.846144 0,31.633339 0,29.31963 0,27.757659 0.95477999,26.682926 2.544643,26.455292 4.747217,26.139931 5.089286,25.178021 5.089286,19.299661 5.089286,11.672938 7.449964,7.4616178 14.362289,2.7571298 19.457311,-0.71051218 27.28375,-0.93412519 32.5,2.2389088 c 3.630281,2.208292 3.869719,2.208231 7.5,-0.0019 4.921969,-2.99652298 12.723977,-2.90859398 17.823925,0.200882 C 67.755268,8.4931043 69.926504,21.352239 62.8125,31.982709 58.921689,37.796756 39.099566,54.968071 36.330869,54.922958 35.598891,54.911028 31.484375,52.286248 27.1875,49.090107 Z"
     style="fill:#fefefe" />
</svg>
