<?xml version="1.0" encoding="UTF-8" standalone="no"?>
<svg
   xmlns:dc="http://purl.org/dc/elements/1.1/"
   xmlns:cc="http://creativecommons.org/ns#"
   xmlns:rdf="http://www.w3.org/1999/02/22-rdf-syntax-ns#"
   xmlns:svg="http://www.w3.org/2000/svg"
   xmlns="http://www.w3.org/2000/svg"
   version="1.1"
   id="svg4156"
   viewBox="0 0 34.990372 56.25"
   height="56.25"
   width="34.990372">
  <metadata
     id="metadata4168">
    <rdf:RDF>
      <cc:Work
         rdf:about="">
        <dc:format>image/svg+xml</dc:format>
        <dc:type
           rdf:resource="http://purl.org/dc/dcmitype/StillImage" />
        <dc:title></dc:title>
      </cc:Work>
    </rdf:RDF>
  </metadata>
  <defs
     id="defs4166" />
  <style
     id="style4158"
     type="text/css"><![CDATA[
.style0 {
  font-size: 340px;
  font-family: "Tahoma";
  font-weight: 700;
  fill: rgb(193,193,193);
}
]]></style>
  <path
     id="path4220"
     d="m 1.2891652,53.832176 c -1.71888695,-3.21177 -1.71888695,-48.202582 0,-51.414353 C 2.4574732,0.23482 4.0314082,0 17.495187,0 c 13.463778,0 15.037712,0.23482 16.20602,2.417823 1.718887,3.211771 1.718887,48.202583 0,51.414353 C 32.532899,56.01518 30.958964,56.25 17.495187,56.25 4.0314082,56.25 2.4574732,56.01518 1.2891652,53.832176 Z M 19.682687,52.1875 c -0.286459,-0.859375 -1.270834,-1.5625 -2.1875,-1.5625 -0.916666,0 -1.901041,0.703125 -2.1875,1.5625 -0.309829,0.929487 0.576389,1.5625 2.1875,1.5625 1.611111,0 2.497329,-0.633013 2.1875,-1.5625 z m 11.5625,-24.0625 0,-19.3750001 -13.75,0 -13.7500008,0 0,19.3750001 0,19.375 13.7500008,0 13.75,0 0,-19.375 z M 6.2451862,43.992341 c 0,-0.652426 0.84375,-1.88648 1.875,-2.742341 1.03125,-0.855861 1.875,-1.165808 1.875,-0.68877 0,0.477037 -0.84375,1.711091 -1.875,2.742341 -1.03125,1.03125 -1.875,1.341196 -1.875,0.68877 z M 17.927052,43.4375 C 17.608377,42.921875 19.630842,42.5 22.421416,42.5 c 2.790573,0 5.073771,0.421875 5.073771,0.9375 0,0.515625 -2.022464,0.9375 -4.494365,0.9375 -2.4719,0 -4.755096,-0.421875 -5.07377,-0.9375 z m -4.181865,-2.738729 c 0,-0.303176 0.5625,-0.898872 1.25,-1.323771 0.6875,-0.424899 1.25,-0.176845 1.25,0.551229 0,0.728073 -0.5625,1.323771 -1.25,1.323771 -0.6875,0 -1.25,-0.248053 -1.25,-0.551229 z m 5.9375,-1.580937 c 1.546875,-0.297942 4.078125,-0.297942 5.625,0 1.546875,0.297941 0.28125,0.541711 -2.8125,0.541711 -3.09375,0 -4.359375,-0.24377 -2.8125,-0.541711 z M 9.4215842,36.333164 c -0.453168,-0.73324 -0.08762,-1.341778 0.8123318,-1.352305 1.284348,-0.01502 1.265771,-0.253812 -0.08637,-1.110245 -0.9474554,-0.600108 -1.3361334,-1.716495 -0.8637294,-2.48086 1.4425424,-2.334082 2.7057094,-1.554759 2.6444554,1.63152 -0.06806,3.540348 -1.332773,5.211317 -2.5066844,3.31189 z m 10.2611028,-2.21533 c 1.546875,-0.297941 4.078125,-0.297941 5.625,0 1.546875,0.297941 0.28125,0.541711 -2.8125,0.541711 -3.09375,0 -4.359375,-0.24377 -2.8125,-0.541711 z m 0,-3.75 c 1.546875,-0.297941 4.078125,-0.297941 5.625,0 1.546875,0.297941 0.28125,0.541711 -2.8125,0.541711 -3.09375,0 -4.359375,-0.24377 -2.8125,-0.541711 z M 7.9472192,25.625 c -1.20226,-3.133038 0.407334,-5.493104 3.2409828,-4.752088 3.466918,0.906619 4.34836,2.593613 2.511541,4.806844 -1.956458,2.357388 -4.8374208,2.329965 -5.7525238,-0.05476 z M 19.682687,25.367834 c 1.546875,-0.297941 4.078125,-0.297941 5.625,0 1.546875,0.297941 0.28125,0.541711 -2.8125,0.541711 -3.09375,0 -4.359375,-0.24377 -2.8125,-0.541711 z m 0,-3.75 c 1.546875,-0.297941 4.078125,-0.297941 5.625,0 1.546875,0.297941 0.28125,0.541711 -2.8125,0.541711 -3.09375,0 -4.359375,-0.24377 -2.8125,-0.541711 z M 6.3493522,17.14629 c 0.286459,-0.19454 1.505209,-1.107165 2.708334,-2.028055 1.8724778,-1.433224 2.1875008,-1.382285 2.1875008,0.353709 0,1.246723 -1.043418,2.028056 -2.7083348,2.028056 -1.489583,0 -2.473958,-0.159169 -2.1875,-0.35371 z m 6.1458348,-3.470061 c 0,-2.230876 0.520721,-3.501948 1.25,-3.051229 0.6875,0.424898 1.25,2.145595 1.25,3.823771 0,1.678176 -0.5625,3.051229 -1.25,3.051229 -0.6875,0 -1.25,-1.720697 -1.25,-3.823771 z m 7.1875,1.691605 c 1.546875,-0.297941 4.078125,-0.297941 5.625,0 1.546875,0.297941 0.28125,0.541711 -2.8125,0.541711 -3.09375,0 -4.359375,-0.24377 -2.8125,-0.541711 z m 0,-3.75 c 1.546875,-0.297941 4.078125,-0.297941 5.625,0 1.546875,0.297941 0.28125,0.541711 -2.8125,0.541711 -3.09375,0 -4.359375,-0.24377 -2.8125,-0.541711 z"
     style="fill:#979797" />
</svg>
