<?xml version="1.0" encoding="utf-8"?>
<svg xmlns="http://www.w3.org/2000/svg"
	xmlns:xlink="http://www.w3.org/1999/xlink"
	width="32px" height="33px" viewBox="0 0 32 33">
<path fillRule="evenodd" d="M 31.38 15.53C 31.4 15.55 31.41 15.58 31.43 15.61 31.78 15.97 32 16.46 32 17 32 17.74 31.6 18.38 31 18.72 31 18.72 17.36 32.41 17.36 32.41 16.59 33.19 15.33 33.19 14.56 32.41 13.79 31.64 13.79 30.38 14.56 29.6 14.56 29.6 25.13 19 25.13 19 25.13 19 2 19 2 19 0.9 19-0 18.1-0 17-0 15.89 0.9 15 2 15 2 15 25.18 15 25.18 15 25.18 15 14.56 4.34 14.56 4.34 13.79 3.56 13.79 2.31 14.56 1.53 15.33 0.76 16.59 0.76 17.36 1.53 17.36 1.53 31.13 15.35 31.13 15.35 31.16 15.37 31.18 15.39 31.21 15.41 31.27 15.45 31.33 15.48 31.38 15.53Z" fill="rgb(0,184,230)"/></svg>