<svg xmlns="http://www.w3.org/2000/svg" width="20" height="23" viewBox="0 0 20 23"><defs><style>.cls-1{fill:#e25050;fill-rule:evenodd}</style></defs><path id="clipboard_w_tick" data-name="clipboard w tick" class="cls-1" d="M702.482 854.969h14.824a1.484 1.484 0 0 1 1.482 1.485v16.33a1.484 1.484 0 0 1-1.482 1.485h-14.824a1.483 1.483 0 0 1-1.482-1.485v-16.33a1.483 1.483 0 0 1 1.482-1.485zm14.082 9.65a5.939 5.939 0 1 1-5.929 5.938 5.934 5.934 0 0 1 5.929-5.938zm0 1.491a4.448 4.448 0 1 1-4.44 4.447 4.444 4.444 0 0 1 4.44-4.447zm2.719 4.1l-2.843 2.373a.846.846 0 0 1-.331.158.657.657 0 0 1-.224.036.89.89 0 0 1-.582-.194.618.618 0 0 1-.2-.337l-.581-.581a.653.653 0 0 1 .923-.925l.424.424 2.28-1.9a.921.921 0 0 1 1.137 0 .6.6 0 0 1-.003.942zm-12.477-16.722h6.176a.985.985 0 0 1 .618 1.114v2.227a.984.984 0 0 1-.618 1.113h-6.176a.983.983 0 0 1-.618-1.113V854.6a.984.984 0 0 1 .618-1.116zm5.311 3.712h-4.447a.742.742 0 0 1-.741-.742v-1.485a.742.742 0 0 1 .741-.743h.045a1.562 1.562 0 0 1-.045-.37 2.26 2.26 0 0 1 4.447 0 1.512 1.512 0 0 1-.045.37h.045a.742.742 0 0 1 .741.743v1.485a.742.742 0 0 1-.741.742zm-2.964-3.712h1.482v1.485h-1.482v-1.485z" transform="translate(-701 -852)"/></svg>