<svg xmlns="http://www.w3.org/2000/svg" height="56.693" viewBox="0 0 56.693 56.693" width="56.693"><path d="M52.218 25.852h-7.512v-7.51c0-.573-.465-1.039-1.037-1.039H41.53a1.04 1.04 0 0 0-1.041 1.039v7.51h-7.512c-.572 0-1.039.467-1.039 1.041v2.139a1.04 1.04 0 0 0 1.039 1.039h7.512v7.514a1.04 1.04 0 0 0 1.041 1.039h2.139c.572 0 1.037-.465 1.037-1.039V30.07h7.512a1.04 1.04 0 0 0 1.039-1.039v-2.139a1.04 1.04 0 0 0-1.039-1.04z"/><path d="M26.974 32.438c-1.58-1.119-3.016-2.76-3.041-3.264 0-.918.082-1.357 2.141-2.961 2.662-2.084 4.128-4.824 4.128-7.719 0-2.625-.802-4.957-2.167-6.595h1.059c.219 0 .434-.068.609-.196l2.955-2.141c.367-.263.521-.732.381-1.161a1.042 1.042 0 0 0-.988-.72H18.835c-1.446 0-2.915.255-4.357.751-4.816 1.661-8.184 5.765-8.184 9.978 0 5.969 4.624 10.493 10.805 10.635a5.623 5.623 0 0 0-.182 1.396c0 .92.233 1.791.713 2.633h-.17c-5.892 0-11.21 2.891-13.229 7.193-.526 1.119-.794 2.25-.794 3.367a6.33 6.33 0 0 0 .826 3.113c1.269 2.27 3.994 4.031 7.677 4.961 1.901.48 3.944.725 6.065.725 1.906 0 3.723-.246 5.403-.732 5.238-1.521 8.625-5.377 8.625-9.828-.001-4.271-1.374-6.828-5.059-9.435zm-16.691 9.777c0-3.107 3.947-5.832 8.446-5.832h.121c.979.012 1.934.156 2.834.432.309.213.607.416.893.611 2.084 1.42 3.461 2.357 3.844 3.861.09.379.135.758.135 1.125 0 3.869-2.885 5.83-8.578 5.83-4.315 0-7.695-2.646-7.695-6.027zm4.094-29.357c.703-.803 1.624-1.227 2.658-1.227l.117.002c2.921.086 5.716 3.341 6.23 7.256.289 2.192-.199 4.253-1.301 5.509-.705.805-1.613 1.229-2.689 1.229h-.049c-2.861-.088-5.716-3.467-6.227-7.377-.287-2.186.173-4.151 1.261-5.392z"/><path d="M14.767 52.135c-5.25-.747-9.11-2.9-10.578-5.901-.548-1.12-.626-1.542-.544-2.932.308-5.17 5.488-9.361 12.417-10.044l1.666-.164-.352-.843c-.197-.472-.324-1.385-.287-2.074l.065-1.23-1.55-.19c-1.742-.212-3.961-1.166-5.385-2.314-3.52-2.837-4.748-7.932-2.845-11.797 1.37-2.783 4.016-4.973 7.441-6.16 1.86-.644 1.961-.652 9.478-.75 8.061-.104 8.618-.04 8.618.986 0 .768-3.185 3.048-4.259 3.049h-.775l.69 1.09c1.657 2.612 1.921 6.602.62 9.36-.505 1.071-1.286 2.031-3.042 3.74-1.766 1.718-2.363 2.454-2.363 2.91 0 .792 1.416 2.394 3.553 4.018 3.272 2.488 4.445 4.728 4.476 8.55.017 2.229-.037 2.52-.757 4.04-1.395 2.945-4.184 5.093-7.994 6.158-2.054.573-6.069.815-8.293.498zm8.045-4.474c2.426-.819 3.848-2.741 3.852-5.209.002-1.788-.827-2.915-3.536-4.81-1.597-1.117-3.005-1.47-5.19-1.302-5.838.447-9.323 4.707-6.974 8.524.787 1.28 2.472 2.525 4.139 3.06 1.529.49 5.92.34 7.71-.263zm-1.25-22.636c.406-.289.99-1.038 1.299-1.665.469-.953.56-1.513.56-3.421-.002-2.05-.078-2.442-.746-3.855-.976-2.063-1.995-3.19-3.599-3.974-2.28-1.115-4.16-.555-5.383 1.604-.527.93-.6 1.34-.591 3.342.007 1.786.126 2.577.549 3.64.75 1.886 2.006 3.441 3.478 4.302 1.044.61 1.448.715 2.471.641.758-.055 1.505-.288 1.962-.614z" fill="#fff" stroke-width=".24"/><path d="M40.886 38.148c-.2-.201-.288-1.48-.288-4.204v-3.916h-3.927c-4.593 0-4.721-.057-4.721-2.104 0-1.939.097-1.98 4.701-1.98h3.947l.004-3.903c.002-2.147.098-4.054.214-4.237.335-.528 2.54-.645 3.261-.172l.605.396v7.916h3.915c2.726 0 4.004.088 4.204.289.377.376.377 3.13 0 3.507-.2.2-1.478.288-4.204.288h-3.915v3.74c0 2.118-.108 3.94-.249 4.203-.205.384-.511.465-1.754.465-.85 0-1.63-.125-1.793-.288z" fill="#fff" stroke-width=".24"/></svg>