<svg xmlns="http://www.w3.org/2000/svg" width="19" height="23" viewBox="0 0 19 23"><path d="M15.2 7.66c-.75 0-1.43-.28-1.96-.74a4.58 4.58 0 0 0 1.2-3.09c0-.73-.18-1.41-.49-2.02.39-.18.81-.28 1.25-.28 1.68 0 3.04 1.37 3.04 3.07a3.05 3.05 0 0 1-3.04 3.06zm-5.32.01c-2.1 0-3.8-1.72-3.8-3.84C6.08 1.72 7.78 0 9.88 0c2.1 0 3.8 1.72 3.8 3.83 0 2.12-1.7 3.84-3.8 3.84zm-3.36-.75c-.53.46-1.21.74-1.96.74A3.05 3.05 0 0 1 1.52 4.6c0-1.7 1.36-3.07 3.04-3.07.44 0 .86.1 1.24.28-.3.61-.48 1.29-.48 2.02 0 1.2.46 2.27 1.2 3.09zm-1.96 8.41l1.52 1.03v4.34s-1.01.77-1.9.77c-.9 0-1.9-.77-1.9-.77v-4.6L.76 14.57 0 9.2s2.07-.66 3.8-.75l.76 6.88zm0-6.13s3.03-.77 5.32-.77c2.27 0 5.32.77 5.32.77l-.76 6.13-2.28 1.54v5.36s-1.15.77-2.28.77c-1.15 0-2.28-.77-2.28-.77v-5.36l-2.28-1.54-.76-6.13zm11.39-.67c1.52.23 3.05.78 3.05.78l-.6 5.4-1.68 1.39v4.6s-1.01.77-1.9.77c-.9 0-1.9-.77-1.9-.77v-3.83l2.28-1.54.75-6.8z" fill="#E14F4F"/></svg>