<svg xmlns="http://www.w3.org/2000/svg" width="24" height="24" viewBox="0 0 24 24"><path d="M21.231 0H2.769A2.77 2.77 0 0 0 0 2.769v18.46A2.77 2.77 0 0 0 2.769 24h18.463A2.769 2.769 0 0 0 24 21.229V2.769A2.769 2.769 0 0 0 21.231 0zM12 7.385a4.615 4.615 0 1 1 .002 9.23A4.615 4.615 0 0 1 12 7.385zm9 12.693a.923.923 0 0 1-.924.922H3.924A.923.923 0 0 1 3 20.078V10h1.897a7.56 7.56 0 0 0-.2.971c-.05.337-.081.679-.081 1.029a7.384 7.384 0 1 0 14.768 0c0-.35-.031-.692-.081-1.028a7.56 7.56 0 0 0-.2-.971H21v10.077zm0-13.98a.924.924 0 0 1-.924.923h-2.174a.923.923 0 0 1-.923-.923V3.923c0-.51.412-.923.923-.923h2.174c.511 0 .924.413.924.923v2.175z" fill-rule="evenodd" clip-rule="evenodd"/><path d="M10.908 16.42c-1.805-.487-3.095-1.907-3.412-3.757-.498-2.905 2.262-5.665 5.167-5.167 2.002.343 3.498 1.84 3.841 3.841.53 3.095-2.559 5.9-5.596 5.082z" stroke-width=".102"/><path d="M3.348 20.652l-.297-.297V10.068h1.752l-.06.28c-.034.153-.092.715-.128 1.247-.09 1.301.128 2.393.718 3.608.805 1.657 1.809 2.66 3.464 3.463 2.073 1.005 4.309 1.008 6.407.007 2.732-1.303 4.385-4.102 4.181-7.078-.036-.532-.094-1.094-.127-1.248l-.061-.28h1.752v10.288l-.297.297-.297.297H3.645z" stroke-width=".102"/><path d="M17.644 6.92c-.499-.203-.608-.474-.645-1.6-.043-1.302.026-1.71.342-2.026.232-.233.303-.243 1.628-.243h1.386l.297.297.297.297v1.337c0 .763-.047 1.425-.11 1.542-.193.36-.712.493-1.895.487-.603-.004-1.188-.044-1.3-.09z" fill="#fff" stroke-width=".102"/><path d="M17.644 6.92c-.499-.203-.608-.474-.645-1.6-.043-1.302.026-1.71.342-2.026.233-.233.302-.243 1.652-.243h1.41l.273.285c.268.28.273.309.273 1.634 0 .771-.047 1.436-.11 1.554-.193.36-.712.493-1.895.487-.603-.004-1.188-.044-1.3-.09z" fill="#fff" stroke-width=".102"/><path d="M17.53 6.871c-.43-.188-.547-.581-.547-1.856 0-1.139.14-1.665.493-1.854.118-.063.786-.11 1.566-.11 1.358 0 1.361 0 1.634.285.268.28.273.309.273 1.634 0 .771-.047 1.436-.11 1.554-.192.359-.713.493-1.895.489-.691-.003-1.214-.055-1.413-.142z" stroke-width=".102"/><path d="M17.533 6.82c-.413-.174-.602-1.234-.453-2.536.128-1.116.17-1.142 1.871-1.162 1.38-.015 1.39-.014 1.662.258.27.27.273.284.261 1.665-.015 1.86.033 1.811-1.783 1.842-.74.013-1.44-.017-1.558-.067z" stroke-width=".102"/><path d="M2.31 23.896c-.955-.164-1.797-.881-2.127-1.81-.105-.297-.132-2.38-.132-10.137 0-9.692.001-9.766.213-10.22C.58 1.047.96.653 1.606.336l.58-.285H12c9.744 0 9.817.001 10.271.213.682.317 1.076.696 1.393 1.342l.285.58v19.628l-.285.58c-.317.646-.71 1.025-1.393 1.342-.453.211-.548.213-9.966.228-5.23.009-9.727-.022-9.994-.068zm18.458-3.128l.232-.231.028-5.286.028-5.285h-2.005l.134.636c.314 1.498.088 3.13-.642 4.644-.391.81-.605 1.1-1.392 1.894-.804.81-1.062 1-1.897 1.398-2.213 1.057-4.302 1.057-6.505 0-1.385-.665-2.622-1.902-3.287-3.287-.748-1.558-.966-3.126-.647-4.65l.134-.635h-2l.002 5.161c.001 5.517.003 5.536.509 5.794.198.101 2.045.123 8.664.104L20.537 21zm-7.176-4.408c1.308-.485 2.27-1.447 2.783-2.784.186-.483.235-.811.235-1.576 0-1.352-.339-2.219-1.245-3.187C14.447 7.83 13.405 7.39 12 7.39c-1.405 0-2.447.441-3.365 1.423C7.729 9.78 7.39 10.648 7.39 12c0 1.352.339 2.219 1.245 3.187.657.704 1.668 1.248 2.653 1.43.51.093 1.725-.042 2.304-.257zm7.174-9.638l.3-.335-.033-1.462c-.044-1.975.017-1.914-1.958-1.958l-1.462-.033-.34.304-.34.305v1.41c0 2.08.105 2.179 2.275 2.132l1.258-.027z" fill="#fff" stroke-width=".102"/></svg>