<svg xmlns="http://www.w3.org/2000/svg" width="26" height="22" viewBox="0 0 26 22"><defs><style>.cls-1{fill:#e25050;fill-rule:evenodd}</style></defs><path id="like_plus" data-name="like plus" class="cls-1" d="M1021.43 860.228a6.46 6.46 0 0 0-4.08 11.5c-1.91 1.4-3.35 2.281-3.35 2.281s-13-7.93-13-14.32c0-3.849 2.4-7.7 6.96-7.7 4.18 0 6.04 3.937 6.04 3.937a6.712 6.712 0 0 1 6.04-3.937c4.41 0 6.88 3.773 6.88 7.7a6.589 6.589 0 0 1-.66 2.688 6.493 6.493 0 0 0-4.83-2.149zm0 .924a5.544 5.544 0 1 1-5.57 5.543 5.554 5.554 0 0 1 5.57-5.543zm-2.79 6.467h1.86v1.848h1.86v-1.848h1.85v-1.847h-1.85v-1.848h-1.86v1.848h-1.86v1.847z" transform="translate(-1001 -852)"/></svg>