<svg xmlns="http://www.w3.org/2000/svg" viewBox="0 0 500 500"><path d="M335 443.2H167.7c-8.3 0-15-6.8-15-15V71.8c0-8.3 6.8-15 15-15H335c8.3 0 15 6.8 15 15v356.4c0 8.3-6.7 15-15 15z" stroke="#000" stroke-miterlimit="10"/><path fill="#FFF" d="M166.9 96.3h168.7v294H166.9z"/><path fill="#FFF" stroke="#FFF" stroke-linecap="round" stroke-miterlimit="10" stroke-width="6" d="M219 82h64"/><circle cx="250.8" cy="416.8" fill="#FFF" r="16.5"/><path d="M163.136 441.326c-8.583-3.067-8.475-.621-8.475-191.73 0-181.093.065-183.983 4.237-188.155 4.102-4.102 7.062-4.238 92.258-4.238h88.02l5.2 5.2 5.2 5.201v364.792l-5.2 5.2-5.2 5.2-86.431-.167c-47.537-.092-87.862-.678-89.61-1.303zm97.993-11.208c7.016-5.519 8.836-13.339 4.884-20.981-3.59-6.943-7.062-8.713-17.092-8.713-5.134 0-8.299 1.539-11.48 5.582-12.756 16.218 7.504 36.843 23.688 24.112zm75.735-186.474V95.34h-171.61v296.61h171.61zM285.616 82.097c.655-3.41-2.102-3.707-34.401-3.707-27.849 0-35.113.584-35.113 2.825 0 1.553.659 3.483 1.464 4.289.805.805 16.286 1.202 34.401.882 29.414-.519 33.013-.977 33.649-4.289z" fill="#b3b3b3" stroke-width="2.119"/></svg>