<svg xmlns="http://www.w3.org/2000/svg" height="1024" width="640"><path d="M576 0H64C28.688 0 0 28.688 0 64v896c0 35.375 28.688 64 64 64h512c35.375 0 64-28.625 64-64V64c0-35.312-28.625-64-64-64zM288 64h64c17.625 0 32 14.344 32 32s-14.375 32-32 32h-64c-17.656 0-32-14.344-32-32s14.344-32 32-32zm64 896h-64c-17.656 0-32-14.375-32-32s14.344-32 32-32h64c17.625 0 32 14.375 32 32s-14.375 32-32 32zm224-128H64V192h512v640z"/><path d="M45.518 1017.865c-8.972-3.238-19.351-8.41-23.066-11.493C2.69 989.971 3.253 1004.52 3.27 511.131c.016-454.107.225-465.914 8.487-479.463 4.658-7.64 14.902-17.403 22.763-21.695C47.848 2.697 67.13 2.17 320 2.17s272.152.528 285.48 7.804c7.861 4.292 18.105 14.055 22.763 21.695 8.262 13.55 8.47 25.348 8.47 480.332s-.208 466.782-8.47 480.332c-18.611 30.524-7.388 29.39-301.735 30.46-213.826.776-267.812-.17-280.99-4.927zm331.279-67.024c11.54-14.264 10.564-33.434-2.362-46.36-9.9-9.9-13.733-10.65-54.435-10.65s-44.534.75-54.435 10.65c-16.814 16.814-12.516 45.876 8.075 54.602 5.213 2.21 28.691 3.564 52.173 3.01 39.01-.921 43.41-1.892 50.984-11.252zM576 512V190.915H64v642.17h512zM374.435 119.52c12.929-12.93 13.903-32.1 2.355-46.361-7.822-9.66-11.059-10.244-56.79-10.244s-48.968.584-56.79 10.244c-11.548 14.26-10.574 33.431 2.355 46.36 9.9 9.9 13.733 10.65 54.435 10.65s44.534-.75 54.435-10.65z" fill="#b3b3b3" stroke-width="4.339"/></svg>