<svg xmlns="http://www.w3.org/2000/svg" width="14" height="14" viewBox="0 0 14 14"><defs><style>.cls-1{fill:#fff;fill-rule:evenodd}</style></defs><path id="proper_fucking_phone" data-name="proper fucking phone" class="cls-1" d="M.92.517c.56-.561 2.253-.654 2.266-.358S4.711 3.743 4.724 4.04a5.9 5.9 0 0 1-1.293 1.6c-.292.295 1.977 2.86 2.02 2.909s2.613 2.313 2.905 2.02a5.9 5.9 0 0 1 1.6-1.293c.3.013 3.582 1.526 3.879 1.539s.2 1.706-.357 2.267c-.479.479-2.96 2.219-7.273-.888a13.685 13.685 0 0 1-2.358-2.032 13.689 13.689 0 0 1-2.04-2.369C-1.3 3.478.441 1 .92.517z"/></svg>