<svg xmlns="http://www.w3.org/2000/svg" height="56.693" viewBox="0 0 56.693 56.693" width="56.693"><path d="M30.374 4.622c-13.586 0-20.437 9.74-20.437 17.864 0 4.918 1.862 9.293 5.855 10.922.655.27 1.242.01 1.432-.715.132-.5.445-1.766.584-2.295.191-.717.117-.967-.412-1.594-1.151-1.357-1.888-3.115-1.888-5.607 0-7.226 5.407-13.695 14.079-13.695 7.679 0 11.898 4.692 11.898 10.957 0 8.246-3.649 15.205-9.065 15.205-2.992 0-5.23-2.473-4.514-5.508.859-3.623 2.524-7.531 2.524-10.148 0-2.34-1.257-4.292-3.856-4.292-3.058 0-5.515 3.164-5.515 7.401 0 2.699.912 4.525.912 4.525l-3.678 15.582c-1.092 4.625-.164 10.293-.085 10.865.046.34.482.422.68.166.281-.369 3.925-4.865 5.162-9.359.351-1.271 2.011-7.859 2.011-7.859.994 1.896 3.898 3.562 6.986 3.562 9.191 0 15.428-8.379 15.428-19.595.001-8.483-7.183-16.382-18.101-16.382z"/><path d="M18.253 53.99a124.4 124.4 0 0 0-.225-2.968c-.324-3.926-.028-6.045 2.12-15.161 1.93-8.195 1.935-8.224 1.553-9.249-.47-1.26-.55-4.95-.138-6.327.405-1.356 1.557-3 2.585-3.691.557-.374 1.312-.615 2.112-.674 1.688-.124 2.757.445 3.485 1.857.807 1.563.628 3.513-.752 8.167-1.434 4.84-1.533 5.502-1.023 6.839 1.365 3.573 6.095 3.996 9.262.828 2.39-2.39 4.015-6.878 4.253-11.75.2-4.07-.648-6.859-2.73-8.988-2.327-2.38-5.047-3.375-9.207-3.37-3.098.004-4.705.373-7.086 1.629-6.383 3.366-9.117 12.573-5.242 17.653l.63.826-.415 1.76c-.507 2.15-.832 2.327-2.556 1.388-2.13-1.158-3.534-3.185-4.309-6.213-1.358-5.309.221-11.19 4.126-15.371C18.914 6.658 24.273 4.6 31.11 4.874c4.88.194 8.114 1.36 11.481 4.137 3.717 3.066 5.695 7.328 5.695 12.273 0 10.301-5.605 18.165-13.585 19.06-3.14.352-5.941-.507-7.759-2.38l-.97-1-.236.916c-2.235 8.682-2.486 9.412-4.23 12.292-2.044 3.375-3.24 4.78-3.252 3.818z" fill="#fff" stroke-width=".24"/></svg>