<svg xmlns="http://www.w3.org/2000/svg" width="24" height="24" viewBox="0 0 24 24"><path d="M6.503 20.752A3.25 3.25 0 0 1 3.252 24 3.25 3.25 0 0 1 0 20.752a3.25 3.25 0 0 1 3.252-3.248 3.25 3.25 0 0 1 3.251 3.248zM0 8.18v4.811c6.05.062 10.96 4.966 11.022 11.009h4.817C15.777 15.29 8.721 8.242 0 8.18zm0-3.368C10.58 4.858 19.152 13.406 19.183 24H24C23.97 10.769 13.245.046 0 0v4.812z"/><path d="M19.22 23.488c0-.868-.202-2.432-.471-3.646A19.248 19.248 0 0 0 4.158 5.252C2.944 4.981 1.38 4.78.512 4.78H0V.049l.839.03c2.454.084 5.572.728 7.796 1.609 8.993 3.564 14.925 11.916 15.288 21.524l.03.788H19.22z" fill="#fff" stroke-width=".102"/><path d="M11 23.008c-.16-1.39-.459-2.451-1.032-3.656-1.761-3.702-5.017-5.931-9.332-6.39L0 12.896V8.207l.965.068c5.644.397 10.643 3.735 13.118 8.759 1.015 2.06 1.524 3.901 1.65 5.965l.06 1.001h-4.68zm-8.274.881c-.612-.095-1.432-.541-1.833-.998a3.2 3.2 0 0 1 .854-4.947c.493-.273.628-.3 1.507-.3.807 0 1.037.038 1.396.23.68.363 1.113.803 1.447 1.47.265.53.31.735.31 1.402 0 .667-.045.871-.31 1.4a3.168 3.168 0 0 1-3.371 1.743z" fill="#fff" stroke-width=".102"/></svg>