<svg xmlns="http://www.w3.org/2000/svg" height="56.693" viewBox="0 0 56.693 56.693" width="56.693"><path d="M30.507 5.188v11.381h11.379v8.788H30.507v12.619c0 2.855-.035 4.502.266 5.311.301.805 1.055 1.641 1.875 2.123 1.092.654 2.332.98 3.734.98 2.492 0 4.971-.809 7.436-2.428v7.76c-2.1.99-4.006 1.688-5.711 2.084-1.707.396-3.549.6-5.531.6-2.25 0-3.578-.285-5.305-.85-1.73-.572-3.205-1.385-4.424-2.43-1.225-1.053-2.068-2.172-2.54-3.355-.473-1.186-.709-2.904-.709-5.154v-17.26h-6.686v-6.971c1.933-.627 4.174-1.527 5.55-2.699a13.469 13.469 0 0 0 3.32-4.227c.838-1.641 1.412-3.734 1.727-6.271h6.998z"/><path d="M29.187 53.95c-4.093-.945-7.213-3.07-8.545-5.82-.816-1.686-.985-4.132-.963-13.958l.02-8.948h-6.74l.067-3.373.066-3.372 1.972-.795c3.25-1.31 5.74-3.672 7.03-6.67.518-1.205 1.484-4.798 1.46-5.429-.01-.227.839-.3 3.471-.3h3.484v11.29h11.29v8.649H30.497l.066 9.11c.063 8.816.082 9.134.568 9.79 1.162 1.568 3.066 2.348 5.58 2.287 1.982-.049 3.815-.531 5.632-1.484l1.39-.728-.066 3.774-.066 3.775-2.042.796c-1.123.438-2.771.972-3.663 1.186-2.2.528-6.864.647-8.709.22z" fill="#fff" stroke-width=".24"/></svg>