<svg xmlns="http://www.w3.org/2000/svg">
	<symbol id="email-icon" viewBox="0 0 512 512">
		<path d="M502.3 190.8c3.9-3.1 9.7-.2 9.7 4.7V400c0 26.5-21.5 48-48 48H48c-26.5 0-48-21.5-48-48V195.6c0-5 5.7-7.8 9.7-4.7 22.4 17.4 52.1 39.5 154.1 113.6 21.1 15.4 56.7 47.8 92.2 47.6 35.7.3 72-32.8 92.3-47.6 102-74.1 131.6-96.3 154-113.7zM256 320c23.2.4 56.6-29.2 73.4-41.4 132.7-96.3 142.8-104.7 173.4-128.7 5.8-4.5 9.2-11.5 9.2-18.9v-19c0-26.5-21.5-48-48-48H48C21.5 64 0 85.5 0 112v19c0 7.4 3.4 14.3 9.2 18.9 30.6 23.9 40.7 32.4 173.4 128.7 16.8 12.2 50.2 41.8 73.4 41.4z" />
	</symbol>
	<symbol id="facebook-icon" viewBox="0 0 448 512">
		<path d="M448 80v352c0 26.5-21.5 48-48 48h-85.3V302.8h60.6l8.7-67.6h-69.3V192c0-19.6 5.4-32.9 33.5-32.9H384V98.7c-6.2-.8-27.4-2.7-52.2-2.7-51.6 0-87 31.5-87 89.4v49.9H184v67.6h60.9V480H48c-26.5 0-48-21.5-48-48V80c0-26.5 21.5-48 48-48h352c26.5 0 48 21.5 48 48z" />
	</symbol>
	<symbol id="plus-icon" viewBox="0 0 448 512">
		<path d="M416 208H272V64c0-17.67-14.33-32-32-32h-32c-17.67 0-32 14.33-32 32v144H32c-17.67 0-32 14.33-32 32v32c0 17.67 14.33 32 32 32h144v144c0 17.67 14.33 32 32 32h32c17.67 0 32-14.33 32-32V304h144c17.67 0 32-14.33 32-32v-32c0-17.67-14.33-32-32-32z" />
	</symbol>
	<symbol id="skype-icon" viewBox="0 0 448 512">
		<path d="M424.7 299.8c2.9-14 4.7-28.9 4.7-43.8 0-113.5-91.9-205.3-205.3-205.3-14.9 0-29.7 1.7-43.8 4.7C161.3 40.7 137.7 32 112 32 50.2 32 0 82.2 0 144c0 25.7 8.7 49.3 23.3 68.2-2.9 14-4.7 28.9-4.7 43.8 0 113.5 91.9 205.3 205.3 205.3 14.9 0 29.7-1.7 43.8-4.7 19 14.6 42.6 23.3 68.2 23.3 61.8 0 112-50.2 112-112 .1-25.6-8.6-49.2-23.2-68.1zm-194.6 91.5c-65.6 0-120.5-29.2-120.5-65 0-16 9-30.6 29.5-30.6 31.2 0 34.1 44.9 88.1 44.9 25.7 0 42.3-11.4 42.3-26.3 0-18.7-16-21.6-42-28-62.5-15.4-117.8-22-117.8-87.2 0-59.2 58.6-81.1 109.1-81.1 55.1 0 110.8 21.9 110.8 55.4 0 16.9-11.4 31.8-30.3 31.8-28.3 0-29.2-33.5-75-33.5-25.7 0-42 7-42 22.5 0 19.8 20.8 21.8 69.1 33 41.4 9.3 90.7 26.8 90.7 77.6 0 59.1-57.1 86.5-112 86.5z" />
	</symbol>
	<symbol id="vk-icon" viewBox="0 0 576 512">
		<path d="M545 117.7c3.7-12.5 0-21.7-17.8-21.7h-58.9c-15 0-21.9 7.9-25.6 16.7 0 0-30 73.1-72.4 120.5-13.7 13.7-20 18.1-27.5 18.1-3.7 0-9.4-4.4-9.4-16.9V117.7c0-15-4.2-21.7-16.6-21.7h-92.6c-9.4 0-15 7-15 13.5 0 14.2 21.2 17.5 23.4 57.5v86.8c0 19-3.4 22.5-10.9 22.5-20 0-68.6-73.4-97.4-157.4-5.8-16.3-11.5-22.9-26.6-22.9H38.8c-16.8 0-20.2 7.9-20.2 16.7 0 15.6 20 93.1 93.1 195.5C160.4 378.1 229 416 291.4 416c37.5 0 42.1-8.4 42.1-22.9 0-66.8-3.4-73.1 15.4-73.1 8.7 0 23.7 4.4 58.7 38.1 40 40 46.6 57.9 69 57.9h58.9c16.8 0 25.3-8.4 20.4-25-11.2-34.9-86.9-106.7-90.3-111.5-8.7-11.2-6.2-16.2 0-26.2.1-.1 72-101.3 79.4-135.6z" />
	</symbol>
	<symbol id="phone-icon" viewBox="0 0 16 16">
		<path fill-rule="evenodd" d="M1.885.511a1.745 1.745 0 0 1 2.61.163L6.29 2.98c.329.423.445.974.315 1.494l-.547 2.19a.678.678 0 0 0 .178.643l2.457 2.457a.678.678 0 0 0 .644.178l2.189-.547a1.745 1.745 0 0 1 1.494.315l2.306 1.794c.829.645.905 1.87.163 2.611l-1.034 1.034c-.74.74-1.846 1.065-2.877.702a18.634 18.634 0 0 1-7.01-4.42 18.634 18.634 0 0 1-4.42-7.009c-.362-1.03-.037-2.137.703-2.877L1.885.511z" />
	</symbol>
	<symbol id="telegram-icon" viewBox="0 0 16 16">
		<path d="M16 8A8 8 0 1 1 0 8a8 8 0 0 1 16 0zM8.287 5.906c-.778.324-2.334.994-4.666 2.01-.378.15-.577.298-.595.442-.03.243.275.339.69.47l.175.055c.408.133.958.288 1.243.294.26.006.549-.1.868-.32 2.179-1.471 3.304-2.214 3.374-2.23.05-.012.12-.026.166.016.047.041.042.12.037.141-.03.129-1.227 1.241-1.846 1.817-.193.18-.33.307-.358.336a8.154 8.154 0 0 1-.188.186c-.38.366-.664.64.015 1.088.327.216.589.393.85.571.284.194.568.387.936.629.093.06.183.125.27.187.331.236.63.448.997.414.214-.02.435-.22.547-.82.265-1.417.786-4.486.906-5.751a1.426 1.426 0 0 0-.013-.315.337.337 0 0 0-.114-.217.526.526 0 0 0-.31-.093c-.3.005-.763.166-2.984 1.09z" />
	</symbol>
	<symbol id="viber-icon" viewBox="0 0 24 24">
		<path d="M12.892 13.745s.427.038.656-.247l.448-.563c.216-.28.738-.458 1.249-.174.676.382 1.55.982 2.149 1.541.33.278.407.688.182 1.121l-.002.009c-.232.408-.541.791-.932 1.148l-.009.006c-.44.367-.946.58-1.487.404l-.01-.014c-.972-.275-3.304-1.464-4.79-2.649-2.431-1.918-4.159-5.082-4.637-6.778l-.015-.01c-.176-.543.039-1.049.404-1.488l.007-.008c.357-.391.739-.701 1.148-.932l.009-.002c.432-.225.842-.149 1.121.182.367.379 1.056 1.291 1.54 2.149.284.51.106 1.033-.173 1.248l-.564.448c-.284.23-.247.657-.247.657s.834 3.156 3.953 3.952zm4.907-2.616c-.167 0-.303-.135-.304-.302-.014-1.83-.564-3.288-1.634-4.332-1.072-1.045-2.427-1.581-4.027-1.592-.168-.001-.303-.138-.301-.306.001-.167.136-.301.303-.301h.002c1.762.012 3.258.606 4.447 1.764 1.19 1.162 1.802 2.765 1.817 4.763.001.167-.133.304-.301.306h-.002zm-1.595-.624h-.007c-.168-.004-.301-.143-.297-.31.024-1.038-.273-1.878-.906-2.569-.63-.689-1.495-1.065-2.645-1.149-.167-.013-.293-.158-.281-.325.013-.167.158-.293.325-.281 1.294.095 2.32.548 3.049 1.345.733.8 1.092 1.807 1.065 2.992-.004.165-.139.297-.303.297zm-1.558-.522c-.161 0-.295-.126-.303-.289-.051-1.03-.537-1.534-1.527-1.588-.168-.009-.296-.152-.287-.319.009-.168.151-.296.319-.287 1.308.07 2.034.819 2.101 2.164.009.167-.12.31-.288.318l-.015.001zm6.817 3.469c-.605 4.877-4.172 5.185-4.83 5.396-.28.09-2.882.737-6.152.524 0 0-2.438 2.94-3.199 3.705-.119.119-.258.167-.352.145-.131-.032-.167-.188-.165-.414l.02-4.016v-.001c-4.762-1.323-4.485-6.295-4.431-8.898.054-2.603.543-4.736 1.996-6.17 2.61-2.364 7.987-2.011 7.987-2.011 4.541.02 6.717 1.387 7.222 1.845 1.675 1.434 2.528 4.867 1.904 9.895zm-.652-11.113c-.597-.548-3.007-2.298-8.375-2.322 0 0-6.33-.382-9.416 2.45-1.718 1.718-2.322 4.231-2.386 7.348-.063 3.118-.146 8.958 5.484 10.542l.006.002-.004 2.416s-.035.979.609 1.179c.779.241 1.236-.502 1.981-1.304.408-.44.971-1.086 1.397-1.58 3.851.322 6.812-.417 7.149-.526.777-.253 5.177-.816 5.893-6.657.738-6.022-.358-9.83-2.338-11.548z" />
	</symbol>
</svg>
